<svg width="74" height="74" viewBox="0 0 74 74" fill="none" xmlns="http://www.w3.org/2000/svg">
<path d="M37 74C57.4345 74 74 57.4345 74 37C74 16.5655 57.4345 0 37 0C16.5655 0 0 16.5655 0 37C0 57.4345 16.5655 74 37 74Z" fill="url(#paint0_linear)"/>
<path fill-rule="evenodd" clip-rule="evenodd" d="M47.929 32.1742C48.772 30.5068 49.2471 28.6201 49.2471 26.6219C49.2471 19.841 43.7754 14.344 37.0257 14.344C30.276 14.344 24.8043 19.841 24.8043 26.6219C24.8043 28.6114 25.2753 30.4904 26.1115 32.1524L17.2943 36.8953C16.9947 37.0565 16.9072 37.4474 17.1094 37.7219L36.552 64.1172C36.7748 64.4196 37.2252 64.4196 37.448 64.1172L56.8906 37.7219C57.0928 37.4474 57.0053 37.0565 56.7057 36.8953L47.929 32.1742ZM46.2987 34.6198C44.0573 37.2401 40.7344 38.8998 37.0257 38.8998C33.2641 38.8998 29.8993 37.1924 27.6574 34.507L22.9689 37.1656C22.7811 37.2721 22.7797 37.5433 22.9665 37.6517L36.735 45.6448C36.9058 45.7439 37.116 45.745 37.2877 45.6476L51.0311 37.8547C51.2189 37.7482 51.2203 37.477 51.0336 37.3686L46.2987 34.6198ZM46.373 26.5467C46.373 31.7325 42.1885 35.9364 37.0266 35.9364C31.8647 35.9364 27.6802 31.7325 27.6802 26.5467C27.6802 21.361 31.8647 17.1571 37.0266 17.1571C42.1885 17.1571 46.373 21.361 46.373 26.5467ZM22.7358 41.0791C22.556 40.835 22.8375 40.5182 23.0992 40.6702L36.858 48.6575C36.9434 48.7071 37.0485 48.7076 37.1344 48.6589L50.6719 40.9827C50.9338 40.8342 51.2117 41.1502 51.0329 41.393L37.448 59.8359C37.2252 60.1383 36.7748 60.1383 36.552 59.8359L22.7358 41.0791Z" fill="white"/>
<defs>
<linearGradient id="paint0_linear" x1="37" y1="0" x2="37" y2="74" gradientUnits="userSpaceOnUse">
<stop stop-color="#4398FF"/>
<stop offset="1" stop-color="#4C2BDE"/>
</linearGradient>
</defs>
</svg>
