<svg width="74" height="74" viewBox="0 0 74 74" fill="none" xmlns="http://www.w3.org/2000/svg">
<path d="M37 74C57.4345 74 74 57.4345 74 37C74 16.5655 57.4345 0 37 0C16.5655 0 0 16.5655 0 37C0 57.4345 16.5655 74 37 74Z" fill="#5A22F9"/>
<path d="M38.0033 19.5652L56.6912 43.1673C56.9937 43.5495 56.7214 44.1124 56.2341 44.1124H17.5842C17.0878 44.1124 16.8185 43.5319 17.139 43.1529L37.101 19.5506C37.3389 19.2693 37.7746 19.2763 38.0033 19.5652Z" fill="#5A22F9" stroke="white" stroke-width="3"/>
<path d="M56.4525 45.2015L37.4989 54.2305C37.1689 54.388 36.7842 54.3812 36.4599 54.2129L17.7965 44.5192C16.9832 44.0968 16.9527 42.9445 17.7425 42.4794L36.3714 31.5138C36.7429 31.295 37.2046 31.2992 37.5721 31.5243L56.5601 43.1544C57.349 43.6376 57.288 44.8035 56.4525 45.2015Z" fill="#5A22F9" stroke="white" stroke-width="3"/>
</svg>
