<svg width="94" height="94" viewBox="0 0 94 94" fill="none" xmlns="http://www.w3.org/2000/svg">
<rect width="94" height="94" rx="21.283" fill="#007BFF"/>
<path opacity="0.35" d="M47.2957 74.1152C62.2073 74.1152 74.2957 62.0269 74.2957 47.1152C74.2957 32.2035 62.2073 20.1152 47.2957 20.1152C32.384 20.1152 20.2957 32.2035 20.2957 47.1152C20.2957 62.0269 32.384 74.1152 47.2957 74.1152Z" fill="white"/>
<path d="M60.7956 49.815H33.7956C32.3052 49.815 31.0956 48.6054 31.0956 47.115C31.0956 45.6246 32.3052 44.415 33.7956 44.415H60.7956C62.286 44.415 63.4956 45.6246 63.4956 47.115C63.4956 48.6054 62.286 49.815 60.7956 49.815Z" fill="white"/>
<path d="M44.5956 60.615V33.615C44.5956 32.1246 45.8052 30.915 47.2956 30.915C48.786 30.915 49.9956 32.1246 49.9956 33.615V60.615C49.9956 62.1054 48.786 63.315 47.2956 63.315C45.8052 63.315 44.5956 62.1054 44.5956 60.615Z" fill="white"/>
</svg>
