<svg width="94" height="94" viewBox="0 0 94 94" fill="none" xmlns="http://www.w3.org/2000/svg">
<rect width="94" height="94" rx="21.283" fill="#007BFF"/>
<path opacity="0.35" d="M68.5563 59.1251V67.2088L63.2184 69.9033H30.7896L25.4436 67.2088V59.1251L29.0812 56.4306C30.5632 53.251 33.8236 51.0415 37.5691 51.0415H56.4309C60.1763 51.0415 63.4367 53.251 64.9187 56.4306L68.5563 59.1251Z" fill="white"/>
<path d="M37.5691 69.9034H24.0963C20.3779 69.9034 17.36 66.8855 17.36 63.167C17.36 59.4486 20.3779 56.4307 24.0963 56.4307H29.0813C28.4615 57.6432 28.1382 59.0174 28.1382 60.4725C28.1382 65.673 32.3686 69.9034 37.5691 69.9034Z" fill="white"/>
<path d="M76.6399 63.167C76.6399 66.8855 73.622 69.9034 69.9036 69.9034H56.4308C61.6313 69.9034 65.8618 65.673 65.8618 60.4725C65.8618 59.0174 65.5384 57.6432 64.9187 56.4307H69.9036C73.622 56.4307 76.6399 59.4486 76.6399 63.167Z" fill="white"/>
<path opacity="0.35" d="M47 45.6526C52.9526 45.6526 57.7782 40.827 57.7782 34.8744C57.7782 28.9217 52.9526 24.0962 47 24.0962C41.0474 24.0962 36.2218 28.9217 36.2218 34.8744C36.2218 40.827 41.0474 45.6526 47 45.6526Z" fill="white"/>
<path opacity="0.35" d="M68.5564 48.347C73.0208 48.347 76.64 44.7278 76.64 40.2633C76.64 35.7989 73.0208 32.1797 68.5564 32.1797C64.0919 32.1797 60.4727 35.7989 60.4727 40.2633C60.4727 44.7278 64.0919 48.347 68.5564 48.347Z" fill="white"/>
<path opacity="0.35" d="M25.4436 48.347C29.9081 48.347 33.5273 44.7278 33.5273 40.2633C33.5273 35.7989 29.9081 32.1797 25.4436 32.1797C20.9792 32.1797 17.36 35.7989 17.36 40.2633C17.36 44.7278 20.9792 48.347 25.4436 48.347Z" fill="white"/>
</svg>
