<svg width="94" height="94" viewBox="0 0 94 94" fill="none" xmlns="http://www.w3.org/2000/svg">
<rect width="94" height="94" rx="21.283" fill="#007BFF"/>
<path d="M36.2204 29.6592C26.6443 29.6592 18.8794 37.4241 18.8794 47.0002C18.8794 56.5763 26.6443 64.3413 36.2204 64.3413C45.7966 64.3413 53.5615 56.5763 53.5615 47.0002C53.5615 37.4241 45.7966 29.6592 36.2204 29.6592ZM37.4883 57.5937V58.9501C37.4883 59.7979 36.7792 60.4877 35.9045 60.4877C35.0297 60.4877 34.3206 59.7979 34.3206 58.9501V57.8673C32.9989 57.7324 31.9083 57.3509 31.0104 56.8577C29.9468 56.2719 29.6655 54.8962 30.3592 53.9135L30.4208 53.8249C31.0181 52.9771 32.1819 52.6226 33.1222 53.1004C33.6732 53.3817 34.3515 53.5975 35.1414 53.5975C36.9141 53.5975 37.2378 52.1409 37.2378 51.4742C37.2378 48.006 30.1048 49.2122 30.1048 42.5378C30.1048 39.5205 31.8274 37.1621 34.4786 36.3027V35.0503C34.4748 34.2025 35.1838 33.5127 36.0586 33.5127C36.9334 33.5127 37.6424 34.2025 37.6424 35.0503V35.9752C38.652 36.0677 39.4844 36.3027 40.1549 36.5956C41.3727 37.1274 41.7696 38.6187 40.9989 39.6785C40.3977 40.507 39.2725 40.8923 38.3206 40.4761C37.916 40.2989 37.442 40.1756 36.9025 40.1756C36.3592 40.1756 34.7754 40.3798 34.7754 42.3336C34.7754 45.6476 42.0008 44.7806 42.0008 51.139C42.0008 54.1216 40.4208 56.7189 37.4883 57.5937Z" fill="white"/>
<path opacity="0.35" d="M72.6632 20.6851L71.0491 22.2992C70.1198 23.2285 68.6094 23.2285 67.6801 22.2992C65.4331 20.0521 61.7907 20.0521 59.5437 22.2992C58.6144 23.2285 57.1039 23.2285 56.1746 22.2992C53.9276 20.0521 50.2852 20.0521 48.0382 22.2992C47.1089 23.2285 45.5984 23.2285 44.6691 22.2992C42.4221 20.0521 38.7797 20.0521 36.5327 22.2992C35.6034 23.2285 34.0929 23.2285 33.1636 22.2992L31.5438 20.6851C30.6376 19.7788 29.0868 20.4204 29.0868 21.7007V40.4277C27.349 42.2662 26.2097 45.1547 26.2097 48.4375C26.2097 51.7203 27.349 54.6089 29.0868 56.4473V72.2972C29.0868 73.5775 30.6376 74.222 31.5438 73.3157L33.1579 71.7017C34.0872 70.7724 35.5977 70.7724 36.527 71.7017C38.774 73.9487 42.4164 73.9487 44.6634 71.7017C45.5927 70.7724 47.1031 70.7724 48.0324 71.7017C50.2794 73.9487 53.9218 73.9487 56.1688 71.7017C57.0981 70.7724 58.6086 70.7724 59.5379 71.7017C61.7849 73.9487 65.4273 73.9487 67.6743 71.7017C68.6036 70.7724 70.1141 70.7724 71.0434 71.7017L72.6574 73.3157C73.5695 74.2191 75.1202 73.5775 75.1202 72.2972V21.7007C75.1202 20.4204 73.5695 19.7788 72.6632 20.6851Z" fill="white"/>
</svg>
