<svg width="94" height="94" viewBox="0 0 94 94" fill="none" xmlns="http://www.w3.org/2000/svg">
<rect width="94" height="94" rx="21.283" fill="#007BFF"/>
<path d="M71.2999 24.4166C71.2999 23.2637 69.9499 22.6427 69.0724 23.3906L61.4314 29.9138C60.7996 30.4538 60.7996 31.4285 61.4314 31.9685L69.0724 38.4917C69.9499 39.2369 71.2999 38.6132 71.2999 37.463V24.4166Z" fill="white"/>
<path d="M22.7 69.8638C22.7 71.0167 24.05 71.6377 24.9275 70.8898L32.5685 64.3666C33.2003 63.8266 33.2003 62.8519 32.5685 62.3119L24.9275 55.7887C24.05 55.0435 22.7 55.6645 22.7 56.8174V69.8638Z" fill="white"/>
<path opacity="0.35" d="M56.45 76.56C66.1426 76.56 74 68.7026 74 59.01C74 49.3174 66.1426 41.46 56.45 41.46C46.7574 41.46 38.9 49.3174 38.9 59.01C38.9 68.7026 46.7574 76.56 56.45 76.56Z" fill="white"/>
<path d="M56.5 58.6297C59.1463 58.6297 61.2916 56.4844 61.2916 53.8381C61.2916 51.1917 59.1463 49.0464 56.5 49.0464C53.8536 49.0464 51.7083 51.1917 51.7083 53.8381C51.7083 56.4844 53.8536 58.6297 56.5 58.6297Z" fill="white"/>
<path d="M62.25 61.5049H50.75C49.162 61.5049 47.875 62.7919 47.875 64.3799C47.875 65.9678 49.162 67.2549 50.75 67.2549H62.25C63.838 67.2549 65.125 65.9678 65.125 64.3799C65.125 62.7919 63.838 61.5049 62.25 61.5049Z" fill="white"/>
<path d="M37.55 17.4404C27.857 17.4404 20 25.2974 20 34.9904C20 44.6834 27.857 52.5404 37.55 52.5404C47.243 52.5404 55.1 44.6834 55.1 34.9904C55.1 25.2974 47.243 17.4404 37.55 17.4404ZM38.3195 44.5835V45.7472C38.3195 46.4762 37.7282 47.0675 36.9992 47.0675C36.2702 47.0675 35.6789 46.4762 35.6789 45.7472V44.8184C34.58 44.7023 33.6674 44.3756 32.9222 43.9517C32.0339 43.4468 31.8017 42.2696 32.3768 41.4272L32.4308 41.3489C32.9303 40.6199 33.8996 40.3175 34.6826 40.7279C35.1416 40.9682 35.7086 41.1545 36.3647 41.1545C37.8416 41.1545 38.1116 39.9071 38.1116 39.3347C38.1116 36.3593 32.1662 37.3934 32.1662 31.6694C32.1662 29.0828 33.6026 27.0605 35.8112 26.3234V25.2515C35.8112 24.5225 36.4025 23.9312 37.1315 23.9312C37.8605 23.9312 38.4518 24.5225 38.4518 25.2515V26.0426C39.2942 26.1236 39.9881 26.3234 40.5443 26.5745C41.5595 27.0308 41.8916 28.3106 41.249 29.2178C40.7441 29.9306 39.8045 30.26 39.0134 29.9036C38.6759 29.7524 38.279 29.6444 37.8308 29.6444C37.3772 29.6444 36.0596 29.8199 36.0596 31.4939C36.0596 34.337 42.0806 33.5918 42.0806 39.0458C42.0779 41.6054 40.7603 43.8329 38.3195 44.5835Z" fill="white"/>
<path opacity="0.35" d="M42.0779 39.0453C42.0779 33.5913 36.0569 34.3365 36.0569 31.4934C36.0569 29.8194 37.3745 29.6439 37.8281 29.6439C38.2763 29.6439 38.6732 29.7492 39.0107 29.9031C39.8018 30.2595 40.7414 29.9301 41.2436 29.22C41.8862 28.3101 41.5541 27.033 40.5389 26.5767C39.9827 26.3256 39.2888 26.1231 38.4464 26.0421V25.251C38.4464 24.522 37.8551 23.9307 37.1261 23.9307C36.3971 23.9307 35.8058 24.522 35.8058 25.251V26.3202C33.5972 27.0573 32.1608 29.0796 32.1608 31.6662C32.1608 37.3902 38.1062 36.3561 38.1062 39.3315C38.1062 39.9039 37.8362 41.1513 36.3593 41.1513C35.7032 41.1513 35.1389 40.9677 34.6772 40.7247C33.8942 40.3143 32.9249 40.6167 32.4254 41.3457L32.3714 41.424C31.7963 42.2664 32.0285 43.4463 32.9168 43.9485C33.662 44.3724 34.5746 44.7018 35.6735 44.8152V45.7413C35.6735 46.4703 36.2648 47.0616 36.9938 47.0616C37.7228 47.0616 38.3141 46.4703 38.3141 45.7413V44.5776C40.7603 43.8324 42.0779 41.6049 42.0779 39.0453Z" fill="white"/>
</svg>
