<svg width="94" height="94" viewBox="0 0 94 94" fill="none" xmlns="http://www.w3.org/2000/svg">
<rect width="94" height="94" rx="21.283" fill="#007BFF"/>
<path opacity="0.35" d="M21.167 62.4997V26.333C21.167 22.0524 24.6364 18.583 28.917 18.583H47.0003L62.5003 34.083V62.4997C62.5003 66.7803 59.0309 70.2497 54.7503 70.2497H28.917C24.6364 70.2497 21.167 66.7803 21.167 62.4997Z" fill="white"/>
<path d="M47.0004 28.9163V18.583L62.5004 34.083H52.167C49.3124 34.083 47.0004 31.7709 47.0004 28.9163Z" fill="white"/>
<path d="M70.6069 50.555C68.4705 49.0179 65.4738 49.47 63.6138 51.33L48.5478 66.396C47.5584 67.388 47.0004 68.7313 47.0004 70.1341V73.3865C47.0004 74.5077 47.9097 75.417 49.0309 75.417H52.2833C53.6835 75.417 55.0294 74.8616 56.0188 73.8696L71.2837 58.6047C73.5545 56.3339 73.3297 52.5157 70.6069 50.555Z" fill="white"/>
</svg>
