<svg width="94" height="94" viewBox="0 0 94 94" fill="none" xmlns="http://www.w3.org/2000/svg">
<rect width="94" height="94" rx="21.283" fill="#007BFF"/>
<path opacity="0.35" d="M43.0416 20.6187C30.6583 20.6187 20.6177 30.6593 20.6177 43.0426C20.6177 46.612 21.4724 49.9729 22.9577 52.9698L20.7047 61.9816C20.1903 64.0341 22.0502 65.8939 24.1026 65.3795L33.1144 63.1266C36.1113 64.6118 39.4723 65.4666 43.0416 65.4666C55.4249 65.4666 65.4656 55.4259 65.4656 43.0426C65.4656 30.6593 55.4249 20.6187 43.0416 20.6187Z" fill="white"/>
<path d="M69.9425 56.4893L73.2955 69.8961C73.8099 71.9486 71.9501 73.8085 69.8976 73.294L56.4907 69.941L69.9425 56.4893Z" fill="white"/>
<path d="M62.3367 31.6616C64.3127 34.9988 65.4655 38.8821 65.4655 43.0424C65.4655 55.4257 55.4249 65.4664 43.0416 65.4664C38.8813 65.4664 34.998 64.3135 31.6608 62.3376C35.5625 68.9408 42.7329 73.3807 50.9559 73.3807C63.3392 73.3807 73.3799 63.3401 73.3799 50.9568C73.3799 42.7338 68.9399 35.5634 62.3367 31.6616Z" fill="white"/>
</svg>
