<svg width="475" height="475" viewBox="0 0 475 475" fill="none" xmlns="http://www.w3.org/2000/svg">
<circle opacity="0.16" cx="237.189" cy="237.189" r="237.189" fill="#007BFF"/>
<path opacity="0.1" d="M238.014 374.573C313.48 374.573 374.657 313.186 374.657 237.462C374.657 161.738 313.48 100.352 238.014 100.352C162.549 100.352 101.372 161.738 101.372 237.462C101.372 313.186 162.549 374.573 238.014 374.573Z" fill="#007BFF"/>
<path d="M240.212 309.262C278.727 309.262 309.95 277.932 309.95 239.285C309.95 200.638 278.727 169.309 240.212 169.309C201.697 169.309 170.474 200.638 170.474 239.285C170.474 277.932 201.697 309.262 240.212 309.262Z" fill="#505073"/>
<path opacity="0.8" d="M244.337 399.404C333.469 399.404 405.724 326.901 405.724 237.465C405.724 148.028 333.469 75.5254 244.337 75.5254C155.206 75.5254 82.9504 148.028 82.9504 237.465C82.9504 326.901 155.206 399.404 244.337 399.404Z" stroke="#007BFF" stroke-width="2.49672" stroke-miterlimit="10" stroke-linecap="round" stroke-linejoin="round" stroke-dasharray="1.25 7.49"/>
<path d="M154.097 128.167C157.707 126.989 159.682 123.098 158.509 119.476C157.335 115.854 153.457 113.871 149.847 115.049C146.237 116.226 144.262 120.117 145.435 123.74C146.609 127.362 150.486 129.344 154.097 128.167Z" fill="#EAEEF9"/>
<path d="M122.266 365.746C124.695 365.746 126.665 363.77 126.665 361.332C126.665 358.894 124.695 356.918 122.266 356.918C119.836 356.918 117.867 358.894 117.867 361.332C117.867 363.77 119.836 365.746 122.266 365.746Z" fill="url(#paint0_linear)"/>
<path d="M353.212 126.01L132.439 353.056" stroke="#007BFF" stroke-width="2.49672" stroke-linecap="round" stroke-linejoin="round" stroke-dasharray="0.62 4.99"/>
<path d="M128.59 356.919V357.193" stroke="url(#paint1_linear)" stroke-width="2.49672" stroke-linecap="round" stroke-linejoin="round"/>
<path d="M136.288 126.01L356.786 353.056" stroke="#007BFF" stroke-width="2.49672" stroke-linecap="round" stroke-linejoin="round" stroke-dasharray="0.62 4.99"/>
<path d="M360.635 356.919V357.193" stroke="url(#paint2_linear)" stroke-width="2.49672" stroke-linecap="round" stroke-linejoin="round"/>
<path d="M244.634 87.3545L244.224 404.639" stroke="#007BFF" stroke-width="2.49672" stroke-linecap="round" stroke-linejoin="round" stroke-dasharray="0.62 4.99"/>
<path d="M78.2769 235.532H78.551" stroke="url(#paint3_linear)" stroke-width="2.49672" stroke-linecap="round" stroke-linejoin="round"/>
<path d="M89.2734 235.808L405.449 239.67" stroke="#007BFF" stroke-width="2.49672" stroke-linecap="round" stroke-linejoin="round" stroke-dasharray="0.62 4.99"/>
<path d="M410.673 239.67H410.947" stroke="url(#paint4_linear)" stroke-width="2.49672" stroke-linecap="round" stroke-linejoin="round"/>
<path d="M176.152 331.261V362.16C176.152 364.918 174.778 367.401 172.303 368.781L148.659 382.574C147.284 383.402 145.635 383.954 143.985 383.954C142.335 383.954 140.686 383.402 139.311 382.574L115.667 368.781C113.192 367.401 111.818 364.918 111.818 362.16V331.261C111.818 329.882 112.093 328.503 112.917 327.399C113.467 326.296 114.567 325.192 115.667 324.64L140.136 310.571C142.335 309.191 145.36 309.191 147.559 310.571H147.834L172.303 324.916C172.303 324.916 172.578 324.916 172.578 325.192C172.578 325.192 172.578 325.192 172.853 325.192C173.953 325.744 174.778 326.847 175.328 327.675C175.878 328.503 176.152 329.882 176.152 331.261Z" fill="#F3F6FA"/>
<path d="M176.153 331.262V362.16C176.153 364.919 174.778 367.401 172.303 368.781L148.659 382.575C147.284 383.402 145.635 383.954 143.985 383.954V345.331L175.328 327.399C175.878 328.503 176.153 329.882 176.153 331.262Z" fill="#292941"/>
<path d="M143.986 345.331V383.954C142.336 383.954 140.686 383.402 139.312 382.575L115.667 368.781C113.193 367.401 111.818 364.919 111.818 362.16V331.262C111.818 329.882 112.093 328.503 112.918 327.399L143.986 345.331Z" fill="#6E7191"/>
<path d="M175.329 327.401L143.986 345.333L112.899 327.413C113.449 326.309 114.549 325.206 115.648 324.654L139.862 310.296C142.061 308.917 145.086 308.917 147.285 310.296L172.304 324.918C172.304 324.918 172.304 324.918 172.579 324.918C173.954 325.469 174.504 326.297 175.329 327.401Z" fill="#8C8FA7"/>
<path d="M125.84 223.394V254.292C125.84 257.051 124.465 259.534 121.99 260.913L98.346 274.707C96.9713 275.534 95.3217 276.086 93.6721 276.086C92.0225 276.086 90.3729 275.534 88.9982 274.707L65.3538 260.913C62.6044 259.809 61.2297 257.327 61.2297 254.568V223.67C61.2297 222.29 61.5047 220.911 62.3295 219.807C62.8793 218.704 63.9791 217.6 65.0788 217.049L89.5481 202.979C91.7475 201.599 94.7718 201.599 96.9713 202.979H97.2462L121.715 217.324C121.715 217.324 121.99 217.324 121.99 217.6C121.99 217.6 121.99 217.6 122.265 217.6C123.365 218.152 124.19 219.256 124.74 220.083C125.565 220.635 125.84 222.014 125.84 223.394Z" fill="#F3F6FA"/>
<path d="M125.84 223.394V254.293C125.84 257.051 124.466 259.534 121.991 260.914L98.3468 274.707C96.9721 275.535 95.3225 276.087 93.6729 276.087L93.6729 237.402L124.561 219.772C125.621 220.479 125.84 222.015 125.84 223.394Z" fill="#292941"/>
<path d="M93.6721 237.53V276.362C92.0225 276.362 90.3729 275.811 88.9982 274.983L65.3538 261.189C62.6044 259.81 61.2297 257.327 61.2297 254.568V223.67C61.2297 222.29 61.5047 220.911 62.3295 219.808L93.6721 237.53Z" fill="#6E7191"/>
<path d="M124.545 219.786L93.3973 237.465L62.3164 219.802C62.8663 218.699 63.9793 217.326 65.079 216.774L89.5482 202.704C91.7477 201.325 94.772 201.325 96.9715 202.704L121.991 217.326C123.244 218.188 123.995 218.683 124.545 219.786Z" fill="#8C8FA7"/>
<path d="M415.897 224.498V255.396C415.897 258.155 414.522 260.638 412.048 262.017L388.404 275.811C387.029 276.638 385.379 277.19 383.73 277.19C382.08 277.19 380.43 276.638 379.056 275.811L355.411 262.017C352.937 260.638 351.562 258.155 351.562 255.396V224.498C351.562 223.118 351.837 221.739 352.662 220.635C353.212 219.532 354.312 218.428 355.411 217.877L379.881 203.807C382.08 202.428 385.104 202.428 387.304 203.807H387.579L412.048 218.153C412.048 218.153 412.323 218.153 412.323 218.428C412.323 218.428 412.323 218.428 412.598 218.428C413.698 218.98 414.522 220.084 415.072 220.911C415.622 221.739 415.897 223.118 415.897 224.498Z" fill="#F3F6FA"/>
<path d="M415.897 224.498V255.396C415.897 258.155 414.522 260.638 412.048 262.017L388.403 275.811C387.029 276.639 385.379 277.19 383.729 277.19V238.568L415.072 220.636C415.622 221.739 415.897 223.119 415.897 224.498Z" fill="#292941"/>
<path d="M383.73 238.568V277.19C382.08 277.19 380.431 276.639 379.056 275.811L355.412 262.017C352.937 260.638 351.562 258.155 351.562 255.396V224.498C351.562 223.119 351.837 221.739 352.662 220.636L383.73 238.568Z" fill="#6E7191"/>
<path d="M415.072 220.637L383.73 238.569L352.387 220.361C352.937 219.258 354.037 218.154 355.136 217.602L379.606 203.533C381.805 202.153 384.829 202.153 387.029 203.533L412.048 218.154C413.423 218.706 414.522 219.533 415.072 220.637Z" fill="#8C8FA7"/>
<path d="M364.484 118.046V148.944C364.484 151.702 363.109 154.185 360.634 155.565L336.99 169.359C335.615 170.186 333.966 170.738 332.316 170.738C330.666 170.738 329.017 170.186 327.642 169.359L303.998 155.565C301.523 154.185 300.149 151.702 300.149 148.944V118.046C300.149 116.666 300.424 115.287 301.248 114.183C301.798 113.08 302.898 111.976 303.998 111.425L328.467 97.3548C330.666 95.9755 333.691 95.9755 335.89 97.3548H336.165L360.634 111.7C360.634 111.7 360.909 111.7 360.909 111.976C360.909 111.976 360.909 111.976 361.184 111.976C362.284 112.528 363.109 113.632 363.659 114.459C363.934 115.287 364.484 116.666 364.484 118.046Z" fill="#F3F6FA"/>
<path d="M364.484 118.044V148.942C364.484 151.701 363.109 154.184 360.635 155.563L336.99 169.357C335.616 170.185 333.662 170.8 332.013 170.8L332.012 132.11L363.483 114.136C363.986 115.209 364.484 116.665 364.484 118.044Z" fill="#292941"/>
<path d="M332.042 132.114V170.736C330.392 170.736 328.742 170.185 327.368 169.357L303.723 155.563C301.249 154.184 299.874 151.701 299.874 148.942V118.044C299.874 116.665 300.149 115.285 300.974 114.182L332.042 132.114Z" fill="#6E7191"/>
<path d="M363.384 114.183L332.042 132.115L300.699 113.907C301.249 112.803 302.349 111.7 303.449 111.148L327.918 97.0785C330.117 95.6991 333.142 95.6991 335.341 97.0785L360.36 111.7C361.735 112.252 362.835 113.079 363.384 114.183Z" fill="#8C8FA7"/>
<path d="M275.955 76.6286V107.527C275.955 110.285 274.58 112.768 272.106 114.148L248.461 127.942C247.086 128.769 245.437 129.321 243.787 129.321C242.138 129.321 240.488 128.769 239.113 127.942L215.469 114.148C212.995 112.768 211.62 110.285 211.62 107.527V76.6286C211.62 75.2492 211.895 73.8698 212.72 72.7663C213.269 71.6628 214.369 70.5593 215.469 70.0075L239.938 55.9379C242.138 54.5585 245.162 54.5585 247.361 55.9379H247.636L272.106 70.2834C272.106 70.2834 272.381 70.2834 272.381 70.5593C272.381 70.5593 272.381 70.5593 272.655 70.5593C273.755 71.1111 274.58 72.2146 275.13 73.0422C275.405 73.8698 275.955 75.2492 275.955 76.6286Z" fill="#F3F6FA"/>
<path d="M275.955 76.6263V107.524C275.955 110.283 274.58 112.766 272.106 114.145L248.461 127.939C247.086 128.767 245.196 129.203 243.547 129.203V90.6951L274.892 72.7744C275.167 73.8779 275.955 75.2469 275.955 76.6263Z" fill="#292941"/>
<path d="M243.513 90.6966V129.319C241.863 129.319 240.213 128.768 238.839 127.94L215.194 114.146C212.72 112.767 211.345 110.284 211.345 107.525V76.6269C211.345 75.2475 211.62 73.8682 212.445 72.7646L243.513 90.6966Z" fill="#6E7191"/>
<path d="M274.855 73.0422L243.513 90.9742L212.445 72.7663C212.995 71.6628 214.094 70.5593 215.194 70.0075L239.663 55.9379C241.863 54.5585 244.887 54.5585 247.087 55.9379L272.106 70.5593C272.106 70.5593 272.106 70.5593 272.381 70.5593C273.48 71.1111 274.305 71.9387 274.855 73.0422Z" fill="#8C8FA7"/>
<path d="M276.61 370.339L276.168 401.234C276.129 403.993 274.719 406.456 272.225 407.799L248.386 421.254C246.999 422.062 245.342 422.59 243.693 422.566L244.244 383.948L275.84 366.465C276.374 367.577 276.629 368.96 276.61 370.339Z" fill="#292941"/>
<path d="M244.245 383.947L243.693 422.566C242.043 422.543 240.402 421.967 239.039 421.12L215.594 406.99C213.14 405.575 211.801 403.073 211.84 400.314L212.282 369.419C212.301 368.04 212.596 366.665 213.437 365.573L244.245 383.947Z" fill="#6E7191"/>
<path d="M275.841 366.467L244.245 383.95L213.166 365.296C213.731 364.2 214.847 363.113 215.954 362.577L240.622 348.858C242.841 347.51 245.865 347.553 248.045 348.964L272.852 363.941C272.852 363.941 272.852 363.941 273.127 363.945C274.494 364.517 275.307 365.356 275.841 366.467Z" fill="#8C8FA7"/>
<path d="M374.656 330.707V361.605C374.656 364.364 373.282 366.847 370.807 368.226L347.163 382.02C345.788 382.848 344.139 383.399 342.489 383.399V344.777L373.832 326.845C374.381 328.224 374.656 329.328 374.656 330.707Z" fill="#292941"/>
<path d="M342.489 345.055V383.678C340.84 383.678 339.19 383.126 337.816 382.298L314.171 368.504C311.697 367.125 310.322 364.642 310.322 361.883V330.985C310.322 329.606 310.597 328.227 311.422 327.123L342.489 345.055Z" fill="#6E7191"/>
<path d="M373.557 326.846L342.214 344.778L310.871 326.57C311.421 325.467 312.521 324.363 313.621 323.811L338.09 309.742C340.289 308.362 343.314 308.362 345.513 309.742L370.807 324.363C372.182 324.915 373.007 326.018 373.557 326.846Z" fill="#8C8FA7"/>
<path d="M176.428 119.115V150.013C176.428 152.772 175.054 155.255 172.579 156.634L148.935 170.428C147.56 171.256 145.911 171.807 144.261 171.807C142.611 171.807 140.962 171.256 139.587 170.428L115.943 156.634C113.468 155.255 112.094 152.772 112.094 150.013V119.115C112.094 117.736 112.368 116.356 113.193 115.253C113.743 114.149 114.843 113.046 115.943 112.494L140.412 98.4242C142.611 97.0448 145.636 97.0448 147.835 98.4242H148.11L172.579 112.77C172.579 112.77 172.854 112.77 172.854 113.046C172.854 113.046 172.854 113.046 173.129 113.046C174.229 113.597 175.054 114.701 175.604 115.529C175.878 116.356 176.428 117.736 176.428 119.115Z" fill="#F3F6FA"/>
<path d="M176.428 119.115V150.013C176.428 152.772 175.054 155.255 172.579 156.634L148.935 170.428C147.56 171.256 145.911 171.808 144.261 171.808L144.004 132.9L175.406 114.917C176.023 115.983 176.428 117.736 176.428 119.115Z" fill="#292941"/>
<path d="M143.988 132.959V171.582C142.338 171.582 140.689 171.03 139.314 170.203L115.67 156.409C113.195 155.029 111.821 152.547 111.821 149.788V118.89C111.821 117.51 112.095 116.131 112.92 115.027L143.988 132.959Z" fill="#6E7191"/>
<path d="M175.328 114.977L143.986 132.909L112.894 115.264C113.444 114.161 114.544 113.057 115.644 112.505L139.862 97.8724C142.061 96.493 145.085 96.493 147.285 97.8724L172.304 112.494C172.304 112.494 172.304 112.494 172.579 112.494C173.954 113.046 174.778 114.149 175.328 114.977Z" fill="#8C8FA7"/>
<path d="M240.213 302.567C275.744 302.567 304.548 273.665 304.548 238.012C304.548 202.359 275.744 173.457 240.213 173.457C204.682 173.457 175.878 202.359 175.878 238.012C175.878 273.665 204.682 302.567 240.213 302.567Z" fill="#3E3E5D"/>
<path d="M298.774 238.017C298.774 262.294 284.202 282.984 263.307 292.088C256.159 295.123 248.461 296.778 240.213 296.778C231.965 296.778 224.267 295.123 217.118 292.088C196.223 283.26 181.652 262.294 181.652 238.017C181.652 213.739 196.223 193.049 217.118 183.945C224.267 180.91 231.965 179.255 240.213 179.255C248.461 179.255 256.159 180.91 263.307 183.945C284.202 193.049 298.774 213.739 298.774 238.017Z" fill="#292941"/>
<path d="M259.183 300.087C258.633 300.087 257.808 299.811 257.258 299.535C255.883 298.432 255.608 296.501 256.708 295.121C258.083 293.19 259.457 291.535 261.107 289.88C272.379 278.569 278.978 258.981 278.978 238.015C278.978 217.048 272.379 197.737 261.107 186.15C259.732 184.771 258.633 183.391 257.258 182.012C256.158 180.633 256.433 178.701 257.808 177.598C259.183 176.494 261.107 176.77 262.207 178.15C263.307 179.529 264.406 180.633 265.506 181.736C277.878 194.426 285.301 215.393 285.301 238.015C285.301 260.637 277.878 281.603 265.506 294.294C264.131 295.673 262.757 297.328 261.657 298.708C261.107 299.811 260.007 300.087 259.183 300.087Z" fill="#3C3C55"/>
<path d="M220.142 298.433C219.318 298.433 218.218 298.157 217.668 297.329C216.843 296.226 216.018 295.398 215.194 294.57C202.821 281.88 195.398 260.914 195.398 238.292C195.398 215.67 202.821 194.703 215.194 182.013C216.018 181.185 216.843 180.082 217.668 179.254C218.768 177.875 220.692 177.599 222.067 178.702C223.442 179.806 223.717 181.737 222.617 183.116C221.792 184.22 220.692 185.323 219.592 186.427C208.32 197.738 201.447 217.049 201.447 238.016C201.447 258.982 208.045 278.294 219.592 289.881C220.692 290.984 221.517 292.088 222.617 293.191C223.717 294.57 223.442 296.502 222.067 297.605C221.517 298.157 220.692 298.433 220.142 298.433Z" fill="#3C3C55"/>
<path d="M240.212 302.295C238.562 302.295 236.913 300.915 236.913 298.984V177.047C236.913 175.392 238.288 173.736 240.212 173.736C242.137 173.736 243.511 175.116 243.511 177.047V298.984C243.511 300.915 242.137 302.295 240.212 302.295Z" fill="#3C3C55"/>
<path d="M294.374 218.979H186.05C184.4 218.979 182.75 217.6 182.75 215.669C182.75 214.014 184.125 212.358 186.05 212.358H294.374C296.024 212.358 297.673 213.738 297.673 215.669C297.673 217.6 296.299 218.979 294.374 218.979Z" fill="#3C3C55"/>
<path d="M294.374 263.674H186.05C184.4 263.674 182.75 262.294 182.75 260.363C182.75 258.432 184.125 257.053 186.05 257.053H294.374C296.024 257.053 297.673 258.432 297.673 260.363C297.673 262.294 296.299 263.674 294.374 263.674Z" fill="#3C3C55"/>
<path d="M200.072 251.535C195.123 251.535 191.274 247.673 191.274 242.707C191.274 237.741 195.123 233.879 200.072 233.879C205.021 233.879 208.87 237.741 208.87 242.707C208.87 247.673 205.021 251.535 200.072 251.535Z" fill="#007BFF"/>
<path d="M255.335 209.049C250.661 209.049 246.812 205.186 246.812 200.497C246.812 195.807 250.661 191.944 255.335 191.944C260.008 191.944 263.857 195.807 263.857 200.497C263.857 205.186 260.008 209.049 255.335 209.049Z" fill="#007BFF"/>
<path d="M265.506 277.467C260.833 277.467 256.708 273.604 256.708 268.639C256.708 263.949 260.558 259.811 265.506 259.811C270.18 259.811 274.304 263.673 274.304 268.639C274.304 273.604 270.18 277.467 265.506 277.467Z" fill="#007BFF"/>
<path d="M254.784 298.157C254.51 298.157 254.235 298.157 253.96 297.881C253.41 297.329 253.135 296.502 253.685 295.674C254.235 294.846 254.784 294.295 255.059 293.467C255.609 292.639 256.434 292.639 257.259 292.915C258.084 293.467 258.084 294.295 257.809 295.122C257.259 295.95 256.709 296.778 256.159 297.605C255.609 298.157 255.334 298.157 254.784 298.157ZM259.733 289.881C259.458 289.881 259.183 289.881 259.183 289.605C258.359 289.329 258.084 288.225 258.359 287.674C258.634 286.846 259.183 286.018 259.458 285.191C259.733 284.363 260.558 284.087 261.383 284.363C262.208 284.639 262.483 285.467 262.208 286.294C261.933 287.122 261.383 287.95 261.108 288.777C260.833 289.605 260.283 289.881 259.733 289.881ZM263.033 280.777C262.758 280.777 262.758 280.777 262.483 280.777C261.658 280.501 261.108 279.673 261.383 278.846C261.658 278.018 261.933 277.19 262.208 276.363C262.483 275.535 263.307 274.983 264.132 275.259C264.957 275.535 265.507 276.363 265.232 277.19C264.957 278.018 264.682 279.122 264.407 279.949C264.407 280.501 263.857 280.777 263.033 280.777Z" fill="#007BFF"/>
<path d="M267.156 259.258C266.881 259.258 266.881 259.258 267.156 259.258C266.331 259.258 265.507 258.431 265.507 257.603C265.507 256.775 265.507 255.672 265.782 254.844C265.782 254.017 266.606 253.465 267.431 253.465C268.256 253.465 268.806 254.292 268.806 255.12C268.806 255.948 268.806 257.051 268.531 257.879C268.531 258.706 267.706 259.258 267.156 259.258ZM267.156 249.603C266.331 249.603 265.782 249.051 265.507 248.223C265.507 247.396 265.507 246.292 265.507 245.464C265.507 244.637 266.057 243.809 266.881 243.809C267.706 243.809 268.531 244.361 268.531 245.189C268.531 246.016 268.531 247.12 268.531 247.947C268.806 249.051 268.256 249.603 267.156 249.603ZM266.606 239.947C265.782 239.947 265.232 239.395 265.232 238.567C265.232 237.74 264.957 236.636 264.957 235.809C264.957 234.981 265.507 234.153 266.331 234.153C267.156 234.153 267.981 234.705 267.981 235.533C267.981 236.36 268.256 237.464 268.256 238.292C268.256 239.119 267.706 239.947 266.606 239.947ZM265.232 230.567C264.407 230.567 263.857 230.015 263.857 229.464C263.582 228.636 263.582 227.808 263.307 226.705C263.032 225.877 263.582 225.05 264.407 224.774C265.232 224.498 266.057 225.05 266.331 225.877C266.606 226.705 266.606 227.808 266.881 228.636C267.156 229.464 266.606 230.291 265.782 230.291C265.507 230.567 265.232 230.567 265.232 230.567ZM263.032 221.187C262.482 221.187 261.658 220.636 261.658 220.084C261.383 219.256 261.108 218.429 260.833 217.601C260.558 216.773 261.108 215.946 261.932 215.67C262.757 215.394 263.582 215.946 263.857 216.773C264.132 217.601 264.407 218.429 264.682 219.532C264.957 220.36 264.407 221.187 263.582 221.463C263.307 220.911 263.032 221.187 263.032 221.187ZM260.008 211.808C259.458 211.808 258.908 211.532 258.633 210.704C258.358 209.876 258.083 209.049 257.534 208.221C257.259 207.393 257.534 206.566 258.358 206.29C259.183 206.014 260.008 206.29 260.283 207.118C260.558 207.945 261.108 208.773 261.383 209.6C261.658 210.428 261.383 211.256 260.558 211.532C260.283 211.808 260.008 211.808 260.008 211.808Z" fill="#007BFF"/>
<path d="M249.561 191.945C249.011 191.945 248.736 191.669 248.186 191.393C247.636 190.565 247.087 190.013 246.537 189.186C245.987 188.634 246.262 187.531 246.812 186.979C247.361 186.427 248.461 186.703 249.011 187.255C249.561 188.082 250.111 188.634 250.661 189.462C251.211 190.013 250.936 191.117 250.386 191.669C250.111 191.945 249.836 191.945 249.561 191.945ZM243.512 184.496C243.237 184.496 242.688 184.22 242.413 183.944C241.863 183.392 241.038 182.565 240.488 182.013C239.938 181.461 239.938 180.358 240.488 179.806C241.038 179.254 242.138 179.254 242.688 179.806C243.237 180.358 244.062 181.185 244.612 181.737C245.162 182.289 245.162 183.392 244.612 183.944C244.337 184.496 243.787 184.496 243.512 184.496ZM236.364 178.151C236.089 178.151 235.814 178.151 235.539 177.875C234.714 177.323 234.165 176.771 233.34 176.22C232.515 175.668 232.515 174.84 232.79 174.013C233.34 173.185 234.165 173.185 234.989 173.461C235.814 174.013 236.639 174.564 237.189 175.116C237.739 175.668 238.014 176.496 237.464 177.323C237.189 177.875 236.914 178.151 236.364 178.151Z" fill="#007BFF"/>
<path d="M194.299 238.018C194.024 238.018 193.474 237.742 193.199 237.466C192.649 236.914 191.824 236.087 191.274 235.259C190.724 234.707 190.724 233.604 191.274 233.052C191.824 232.5 192.924 232.5 193.474 233.052C194.024 233.604 194.574 234.431 195.398 234.983C195.948 235.535 195.948 236.638 195.398 237.19C194.848 238.018 194.574 238.018 194.299 238.018ZM187.975 230.845C187.425 230.845 187.15 230.569 186.875 230.293C186.326 229.466 185.776 228.638 185.226 228.086C184.676 227.259 184.951 226.431 185.501 225.879C186.326 225.327 187.15 225.603 187.7 226.155C188.25 226.983 188.8 227.535 189.35 228.362C189.9 228.914 189.625 230.017 189.075 230.569C188.525 230.569 188.25 230.845 187.975 230.845ZM182.751 222.569C182.201 222.569 181.652 222.293 181.377 221.741C180.827 220.913 180.552 220.086 180.277 219.258C180.002 218.431 180.277 217.603 181.102 217.327C181.927 217.051 182.751 217.327 183.026 218.155C183.301 218.982 183.851 219.81 184.126 220.638C184.401 221.465 184.126 222.293 183.576 222.569C183.301 222.569 183.026 222.569 182.751 222.569Z" fill="#007BFF"/>
<path d="M257.533 269.189C257.258 269.189 257.258 269.189 257.533 269.189C256.433 269.189 255.609 268.913 254.509 268.913C253.684 268.913 253.134 268.086 253.134 267.258C253.134 266.43 253.959 265.879 254.784 265.879C255.609 266.155 256.708 266.155 257.533 266.155C258.358 266.155 258.908 266.982 258.908 267.81C258.908 268.637 258.083 269.189 257.533 269.189ZM247.91 267.534H247.635C246.811 267.258 245.711 266.982 244.886 266.982C244.061 266.706 243.511 265.879 243.786 265.051C244.061 264.223 244.886 263.672 245.711 263.948C246.536 264.223 247.36 264.499 248.46 264.499C249.285 264.775 249.835 265.603 249.56 266.43C249.285 266.982 248.735 267.534 247.91 267.534ZM238.563 264.775C238.288 264.775 238.288 264.775 238.013 264.775C237.188 264.499 236.363 264.223 235.263 263.948C234.439 263.672 234.164 262.844 234.439 262.016C234.713 261.189 235.538 260.913 236.363 261.189C237.188 261.465 238.013 261.741 238.837 262.016C239.662 262.292 240.212 263.12 239.937 263.948C239.937 264.499 239.387 264.775 238.563 264.775ZM229.49 261.465C229.215 261.465 229.215 261.465 228.94 261.465C228.115 261.189 227.29 260.637 226.465 260.361C225.641 260.085 225.366 259.258 225.641 258.43C225.916 257.602 226.74 257.327 227.565 257.602C228.39 257.878 229.215 258.43 230.04 258.706C230.864 258.982 231.139 259.809 230.864 260.637C230.589 261.189 230.04 261.465 229.49 261.465ZM220.692 257.602C220.417 257.602 220.142 257.602 219.867 257.327C219.042 256.775 218.217 256.499 217.393 255.947C216.568 255.671 216.293 254.568 216.843 254.016C217.118 253.188 218.217 252.913 218.767 253.464C219.592 254.016 220.417 254.292 221.242 254.844C222.066 255.12 222.341 256.223 221.792 256.775C221.792 257.327 221.242 257.602 220.692 257.602ZM212.444 252.913C212.169 252.913 211.894 252.913 211.619 252.637C210.794 252.085 209.969 251.533 209.144 250.981C208.32 250.43 208.32 249.602 208.595 248.774C209.144 247.947 209.969 247.947 210.794 248.223C211.619 248.774 212.444 249.326 212.994 249.602C213.818 250.154 213.818 250.981 213.543 251.809C213.269 252.637 212.994 252.913 212.444 252.913Z" fill="#007BFF"/>
<path d="M277.329 269.464C276.504 269.464 275.955 268.912 275.955 268.084C275.955 267.257 276.504 266.429 277.329 266.429C278.154 266.429 279.254 266.153 280.079 266.153C280.903 266.153 281.728 266.705 281.728 267.532C281.728 268.36 281.178 269.188 280.354 269.188C279.529 269.188 278.429 269.188 277.329 269.464C277.329 269.464 277.604 269.464 277.329 269.464ZM286.952 267.808C286.402 267.808 285.577 267.257 285.577 266.705C285.302 265.877 285.852 265.05 286.677 264.774C287.502 264.498 288.327 264.222 289.151 263.946C289.976 263.67 290.801 264.222 291.076 265.05C291.351 265.877 290.801 266.705 289.976 266.981C289.151 267.257 288.052 267.532 287.227 267.808C287.227 267.532 286.952 267.808 286.952 267.808ZM296.025 264.498C295.475 264.498 294.925 264.222 294.65 263.67C294.375 262.843 294.65 262.015 295.475 261.739C296.3 261.463 297.125 260.911 297.949 260.636C298.774 260.36 299.599 260.636 299.874 261.187C300.149 261.739 299.874 262.843 299.324 263.118C298.499 263.67 297.674 263.946 296.85 264.498C296.3 264.498 296.025 264.498 296.025 264.498Z" fill="#007BFF"/>
<path d="M263.032 200.22C262.208 200.22 261.658 199.668 261.658 199.117C261.383 198.289 261.933 197.461 262.757 197.186C263.582 196.91 264.682 196.634 265.507 196.634C266.332 196.358 267.156 196.91 267.156 197.737C267.431 198.565 266.881 199.393 266.057 199.393C265.232 199.668 264.407 199.668 263.307 199.944C263.307 200.22 263.307 200.22 263.032 200.22ZM272.655 198.565C271.83 198.565 271.28 198.013 271.28 197.186C271.28 196.358 271.83 195.53 272.655 195.53C273.48 195.53 274.58 195.254 275.404 195.254C276.229 195.254 277.054 195.806 277.054 196.634C277.054 197.461 276.504 198.289 275.679 198.289C274.58 198.289 273.755 198.565 272.655 198.565ZM285.027 198.289C283.927 198.289 283.103 198.289 282.278 198.013C281.453 198.013 280.903 197.186 280.903 196.358C280.903 195.53 281.453 194.979 282.553 194.979C283.378 194.979 284.477 194.979 285.302 195.254C286.127 195.254 286.677 196.082 286.677 196.91C286.402 197.737 285.852 198.289 285.027 198.289Z" fill="#007BFF"/>
<path d="M204.746 237.465C204.471 237.465 204.197 237.465 203.922 237.19C203.372 236.638 203.097 235.81 203.647 234.983C204.197 234.155 204.746 233.603 205.296 232.776C205.846 232.224 206.671 231.948 207.496 232.5C208.046 233.051 208.321 233.879 207.771 234.707C207.221 235.534 206.671 236.086 206.121 236.914C205.846 237.19 205.296 237.465 204.746 237.465ZM211.345 230.293C211.07 230.293 210.52 230.017 210.245 229.741C209.695 229.189 209.695 228.086 210.245 227.534C210.795 226.982 211.62 226.155 212.17 225.603C212.72 225.051 213.819 225.051 214.369 225.603C214.919 226.155 214.919 227.258 214.369 227.81C213.819 228.362 212.994 229.189 212.445 229.741C212.17 230.017 211.62 230.293 211.345 230.293ZM218.218 223.672C217.668 223.672 217.393 223.396 217.118 223.12C216.569 222.568 216.569 221.465 217.393 220.913C218.218 220.361 218.768 219.809 219.593 218.982C220.143 218.43 221.243 218.43 221.792 219.258C222.342 219.809 222.342 220.913 221.517 221.465C220.693 222.016 220.143 222.568 219.318 223.12C219.043 223.672 218.768 223.672 218.218 223.672ZM225.916 217.602C225.367 217.602 225.092 217.326 224.817 217.051C224.267 216.499 224.542 215.395 225.092 214.844C225.641 214.292 226.191 214.016 227.016 213.464L227.566 213.188C228.391 212.637 229.216 212.912 229.765 213.464C230.315 214.292 230.04 215.119 229.491 215.671L228.941 215.947C228.391 216.499 227.841 216.775 227.016 217.326C226.466 217.602 226.191 217.602 225.916 217.602ZM233.89 212.361C233.34 212.361 232.79 212.085 232.515 211.533C231.965 210.705 232.24 209.878 233.065 209.326C233.89 208.774 234.714 208.498 235.539 207.947C236.364 207.395 237.189 207.671 237.739 208.498C238.288 209.326 238.014 210.154 237.189 210.705C236.364 211.257 235.539 211.533 234.714 212.085C234.439 212.361 234.164 212.361 233.89 212.361ZM242.413 207.671C241.863 207.671 241.313 207.395 241.038 206.843C240.763 206.016 241.038 205.188 241.863 204.912C242.687 204.636 243.512 204.084 244.337 203.809C245.162 203.533 245.987 203.809 246.262 204.636C246.537 205.464 246.262 206.291 245.437 206.567C244.612 206.843 243.787 207.395 242.962 207.671C242.962 207.671 242.687 207.671 242.413 207.671Z" fill="#007BFF"/>
<path d="M188.8 276.088C187.975 276.088 187.15 275.26 187.15 274.433C187.15 273.605 187.15 272.502 187.15 271.674C187.15 270.846 187.975 270.295 188.8 270.295C189.625 270.295 190.174 271.122 190.174 271.95C190.174 272.778 190.174 273.605 190.174 274.709C190.174 275.536 189.625 276.088 188.8 276.088ZM189.899 266.708H189.625C188.8 266.432 188.25 265.605 188.525 264.777C188.8 263.95 189.075 262.846 189.35 262.018C189.625 261.191 190.449 260.639 191.274 260.915C192.099 261.191 192.649 262.018 192.374 262.846C192.099 263.674 191.824 264.501 191.824 265.329C191.274 266.157 190.724 266.708 189.899 266.708ZM192.924 257.329C192.649 257.329 192.649 257.329 192.374 257.329C191.549 257.053 191.274 256.225 191.549 255.397C191.824 254.57 192.374 253.742 192.649 252.914C192.924 252.087 194.024 251.811 194.573 252.087C195.398 252.363 195.673 253.466 195.398 254.018C195.123 254.846 194.573 255.673 194.298 256.501C194.024 257.053 193.474 257.329 192.924 257.329Z" fill="#007BFF"/>
<mask id="mask0" style="mask-type:alpha" maskUnits="userSpaceOnUse" x="213" y="210" width="54" height="54">
<circle cx="240" cy="237" r="27" fill="white"/>
</mask>
<g mask="url(#mask0)">
<rect x="277.052" y="264.001" width="74.1023" height="55.7566" transform="rotate(-180 277.052 264.001)" fill="#007BFF"/>
</g>
<path d="M227.381 222.299V229.673L246.79 240.455L227.381 251.8H243.372C248.482 251.8 252.621 248.17 252.621 243.691V237.052L227.381 222.299Z" fill="url(#paint5_linear)"/>
<path d="M227.381 222.299L252.621 237.052V230.408C252.621 225.929 248.478 222.299 243.372 222.299H227.381Z" fill="url(#paint6_linear)"/>
<path d="M240.659 237.054L227.381 244.428V251.802L246.789 240.457L240.659 237.054Z" fill="url(#paint7_linear)"/>
<defs>
<linearGradient id="paint0_linear" x1="117.957" y1="361.351" x2="126.491" y2="361.351" gradientUnits="userSpaceOnUse">
<stop offset="0.00289017" stop-color="#FFD44F"/>
<stop offset="1" stop-color="#FFA607"/>
</linearGradient>
<linearGradient id="paint1_linear" x1="-nan" y1="-nan" x2="-nan" y2="-nan" gradientUnits="userSpaceOnUse">
<stop stop-color="#51DFD4"/>
<stop offset="1" stop-color="#1BE068"/>
</linearGradient>
<linearGradient id="paint2_linear" x1="-nan" y1="-nan" x2="-nan" y2="-nan" gradientUnits="userSpaceOnUse">
<stop stop-color="#51DFD4"/>
<stop offset="1" stop-color="#1BE068"/>
</linearGradient>
<linearGradient id="paint3_linear" x1="-nan" y1="-nan" x2="-nan" y2="-nan" gradientUnits="userSpaceOnUse">
<stop stop-color="#51DFD4"/>
<stop offset="1" stop-color="#1BE068"/>
</linearGradient>
<linearGradient id="paint4_linear" x1="-nan" y1="-nan" x2="-nan" y2="-nan" gradientUnits="userSpaceOnUse">
<stop stop-color="#51DFD4"/>
<stop offset="1" stop-color="#1BE068"/>
</linearGradient>
<linearGradient id="paint5_linear" x1="233.585" y1="228.933" x2="245.169" y2="253.459" gradientUnits="userSpaceOnUse">
<stop stop-color="#3FA3FF"/>
<stop offset="1" stop-color="white"/>
</linearGradient>
<linearGradient id="paint6_linear" x1="227.381" y1="223.606" x2="252.621" y2="233.362" gradientUnits="userSpaceOnUse">
<stop stop-color="#71B9FF"/>
<stop offset="1" stop-color="#FCFEFF"/>
</linearGradient>
<linearGradient id="paint7_linear" x1="229.081" y1="250.402" x2="244.309" y2="237.054" gradientUnits="userSpaceOnUse">
<stop stop-color="#A4D3FF"/>
<stop offset="1" stop-color="white"/>
</linearGradient>
</defs>
</svg>
