<svg width="273" height="273" viewBox="0 0 273 273" fill="none" xmlns="http://www.w3.org/2000/svg">
<circle opacity="0.16" cx="136.495" cy="136.495" r="136.495" fill="#007BFF"/>
<g filter="url(#filter0_d)">
<path d="M74.4407 52.7258C75.9956 52.2171 76.8463 50.536 76.341 48.9709C75.8356 47.4059 74.1654 46.5495 72.6105 47.0582C71.0556 47.5669 70.2049 49.248 70.7102 50.8131C71.2156 52.3782 72.8858 53.2345 74.4407 52.7258Z" fill="#EAF4FF"/>
</g>
<g filter="url(#filter1_d)">
<path d="M58.4744 99.5591C60.0293 99.0504 60.8801 97.3693 60.3747 95.8042C59.8693 94.2391 58.1991 93.3828 56.6442 93.8915C55.0893 94.4001 54.2386 96.0812 54.7439 97.6463C55.2493 99.2114 56.9195 100.068 58.4744 99.5591Z" fill="#EAF4FF"/>
</g>
<g filter="url(#filter2_d)">
<path d="M217.22 77.5847C218.481 77.5847 219.503 76.5475 219.503 75.2682C219.503 73.9888 218.481 72.9517 217.22 72.9517C215.958 72.9517 214.936 73.9888 214.936 75.2682C214.936 76.5475 215.958 77.5847 217.22 77.5847Z" fill="#EAF4FF"/>
</g>
<g filter="url(#filter3_d)">
<path d="M64.6857 179.687C65.6168 178.824 65.6818 177.359 64.8309 176.414C63.9801 175.47 62.5355 175.404 61.6044 176.267C60.6733 177.13 60.6082 178.595 61.4591 179.54C62.31 180.484 63.7546 180.55 64.6857 179.687Z" fill="#EAF4FF"/>
</g>
<path d="M129.077 49.9934C130.008 49.1303 130.073 47.665 129.222 46.7206C128.371 45.7762 126.926 45.7102 125.995 46.5733C125.064 47.4363 124.999 48.9016 125.85 49.846C126.701 50.7905 128.145 50.8564 129.077 49.9934Z" fill="#007BFF"/>
<path d="M217.943 202.687C218.875 201.824 218.94 200.359 218.089 199.415C217.238 198.47 215.793 198.404 214.862 199.267C213.931 200.13 213.866 201.596 214.717 202.54C215.568 203.485 217.012 203.551 217.943 202.687Z" fill="#007BFF"/>
<path d="M136.587 66.2721V96.1096C136.587 98.7042 135.077 101.299 132.92 102.596L110.059 115.785C108.765 116.65 107.04 117.082 105.53 117.082V79.8936L135.508 62.5964C136.371 63.6775 136.587 64.9748 136.587 66.2721Z" fill="#292941"/>
<path d="M105.53 79.8936V117.082C104.02 117.082 102.511 116.65 101.001 115.785L78.1398 102.596C75.7674 101.299 74.4734 98.9204 74.4734 96.1096V66.2721C74.4734 64.9748 74.9047 63.6775 75.5517 62.5964L105.53 79.8936Z" fill="#6E7191"/>
<path d="M135.508 62.5957L105.53 79.8929L75.4197 62.6599C76.0667 61.5788 77.0613 60.2174 78.3554 59.5687L101.648 46.1635C103.804 44.8662 106.608 44.8662 108.981 45.9472L133.136 60.0012C133.136 60.0012 133.136 60.0012 133.351 60.0012C134.214 60.6498 135.077 61.5147 135.508 62.5957Z" fill="#8C8FA7"/>
<path d="M198.7 66.2721V96.1096C198.7 98.7042 197.19 101.299 195.033 102.596L172.172 115.785C170.878 116.65 169.153 117.082 167.643 117.082V79.8936L197.621 62.5964C198.484 63.6775 198.7 64.9748 198.7 66.2721Z" fill="#292941"/>
<path d="M167.643 79.8936V117.082C166.133 117.082 164.623 116.65 163.114 115.785L140.468 102.596C138.096 101.299 136.802 98.9204 136.802 96.1096V66.2721C136.802 64.9748 137.233 63.6775 137.88 62.5964L167.643 79.8936Z" fill="#6E7191"/>
<path d="M197.837 62.5961L167.859 79.8932L137.665 62.3799C138.312 61.2988 139.174 60.2178 140.469 59.5691L163.977 45.9476C166.133 44.6504 168.937 44.6504 171.309 45.7314L195.464 59.7853C195.464 59.7853 195.464 59.7853 195.68 59.7853C196.327 60.6502 197.19 61.515 197.837 62.5961Z" fill="#8C8FA7"/>
<path d="M136.802 179.135V208.973C136.802 211.567 135.293 214.162 133.136 215.459L110.275 228.648C108.981 229.513 107.256 229.945 105.746 229.945V192.757L135.724 175.459C136.371 176.541 136.802 177.838 136.802 179.135Z" fill="#292941"/>
<path d="M105.745 192.757V229.945C104.236 229.945 102.726 229.513 101.216 228.648L78.3554 215.459C75.983 214.162 74.689 211.783 74.689 208.973V179.135C74.689 177.838 75.1203 176.541 75.7673 175.459L105.745 192.757Z" fill="#6E7191"/>
<path d="M135.724 175.459L105.746 192.757L75.5518 175.243C76.1988 174.162 77.0615 173.081 78.3555 172.432L101.864 158.811C104.02 157.514 106.824 157.514 109.196 158.595L133.351 172.649C133.351 172.649 133.351 172.649 133.567 172.649C134.43 173.513 135.292 174.378 135.724 175.459Z" fill="#8C8FA7"/>
<path d="M198.915 179.136V208.973C198.915 211.568 197.405 214.162 195.249 215.46L172.388 228.649C171.094 229.513 169.368 229.946 167.859 229.946V192.757L197.837 175.46C198.484 176.541 198.915 177.838 198.915 179.136Z" fill="#292941"/>
<path d="M167.859 192.757V229.946C166.349 229.946 164.839 229.513 163.329 228.649L140.468 215.46C138.096 214.162 136.802 211.784 136.802 208.973V179.136C136.802 177.838 137.233 176.541 137.88 175.46L167.859 192.757Z" fill="#6E7191"/>
<path d="M197.837 175.46L167.859 192.757L137.665 175.243C138.312 174.162 139.174 173.081 140.469 172.433L163.977 158.811C166.133 157.514 168.937 157.514 171.309 158.595L195.464 172.649C195.464 172.649 195.464 172.649 195.68 172.649C196.543 173.514 197.405 174.379 197.837 175.46Z" fill="#8C8FA7"/>
<path d="M105.53 122.704V152.542C105.53 155.136 104.021 157.731 101.864 159.028L79.003 172.217C77.7089 173.082 75.9836 173.515 74.4739 173.515V136.326L104.452 119.029C105.315 120.11 105.53 121.407 105.53 122.704Z" fill="#292941"/>
<path d="M74.4737 136.326V173.515C72.964 173.515 71.4544 173.082 69.9447 172.217L47.0836 159.028C44.7113 157.731 43.4172 155.353 43.4172 152.542V122.704C43.4172 121.407 43.8486 120.11 44.4956 119.029L74.4737 136.326Z" fill="#6E7191"/>
<path d="M104.667 119.028L74.6893 136.325L44.4729 118.996C45.12 117.915 46.0051 116.65 47.2992 116.001L70.8072 102.38C72.9639 101.082 75.7676 101.082 78.14 102.164L102.079 116.434C102.079 116.434 102.079 116.434 102.295 116.434C103.158 117.082 104.02 117.947 104.667 119.028Z" fill="#8C8FA7"/>
<path d="M229.971 122.704V152.542C229.971 155.136 228.461 157.731 226.305 159.028L203.444 172.217C202.15 173.082 200.424 173.515 198.915 173.515V136.326L228.893 119.029C229.54 120.11 229.971 121.407 229.971 122.704Z" fill="#292941"/>
<path d="M198.915 136.326V173.515C197.405 173.515 195.896 173.082 194.386 172.217L171.525 159.028C169.152 157.731 167.858 155.353 167.858 152.542V122.704C167.858 121.407 168.29 120.11 168.937 119.029L198.915 136.326Z" fill="#6E7191"/>
<path d="M228.893 119.028L198.915 136.325L168.721 118.812C169.368 117.731 170.231 116.65 171.525 116.001L195.033 102.38C197.189 101.082 199.993 101.082 202.365 102.164L226.305 116.434C226.305 116.434 226.305 116.434 226.521 116.434C227.599 117.082 228.246 117.947 228.893 119.028Z" fill="#8C8FA7"/>
<path d="M171.74 122.056V155.353C171.74 158.38 170.23 161.191 167.427 162.704L141.762 177.623C140.252 178.488 138.527 178.921 136.802 178.921V137.191L170.662 117.732C171.309 119.029 171.74 120.543 171.74 122.056Z" fill="#0059DE"/>
<path d="M136.801 137.191V163.569V178.92C135.076 178.92 133.351 178.488 131.841 177.623L120.626 171.136L105.961 162.704C103.373 161.19 101.863 158.38 101.647 155.569V121.839C101.647 120.326 102.079 118.812 102.726 117.515L136.801 137.191Z" fill="#3496FF"/>
<path d="M170.446 117.731L136.586 137.191L102.726 117.515C103.373 116.218 104.451 115.137 105.745 114.488L132.057 99.1369C134.645 97.6234 137.664 97.6234 140.252 98.9206L167.427 114.704C167.427 114.704 167.643 114.704 167.643 114.92C168.937 115.785 169.799 116.65 170.446 117.731Z" fill="#007BFF"/>
<path d="M152.33 141.73C152.33 141.946 152.33 142.162 152.115 142.379C151.899 143.027 151.683 143.676 151.468 144.325C151.468 144.325 151.468 144.325 151.468 144.541C149.311 149.73 144.782 153.406 139.39 154.487H139.174C137.233 154.919 135.292 154.703 133.351 154.487C124.509 152.541 119.117 144.108 120.843 135.46C122.568 126.595 131.195 120.974 139.821 122.919C142.841 123.568 145.645 125.082 148.017 127.244C151.899 130.919 153.624 136.541 152.33 141.73Z" fill="#EAF4FF"/>
<path d="M134.645 144.541C134.214 144.541 133.567 144.325 133.135 143.893L129.038 139.785C128.175 138.92 128.175 137.839 129.038 136.974C129.9 136.109 130.979 136.109 131.841 136.974L134.429 139.569L141.115 132.866C141.978 132.001 143.056 132.001 143.919 132.866C144.782 133.731 144.782 134.812 143.919 135.677L136.155 144.109C135.723 144.325 135.292 144.541 134.645 144.541Z" fill="#007BFF"/>
<defs>
<filter id="filter0_d" x="66.5645" y="46.9114" width="13.9223" height="13.9611" filterUnits="userSpaceOnUse" color-interpolation-filters="sRGB">
<feFlood flood-opacity="0" result="BackgroundImageFix"/>
<feColorMatrix in="SourceAlpha" type="matrix" values="0 0 0 0 0 0 0 0 0 0 0 0 0 0 0 0 0 0 127 0" result="hardAlpha"/>
<feOffset dy="4"/>
<feGaussianBlur stdDeviation="2"/>
<feColorMatrix type="matrix" values="0 0 0 0 0 0 0 0 0 0.482353 0 0 0 0 1 0 0 0 0.16 0"/>
<feBlend mode="normal" in2="BackgroundImageFix" result="effect1_dropShadow"/>
<feBlend mode="normal" in="SourceGraphic" in2="effect1_dropShadow" result="shape"/>
</filter>
<filter id="filter1_d" x="50.5981" y="93.7446" width="13.9223" height="13.9611" filterUnits="userSpaceOnUse" color-interpolation-filters="sRGB">
<feFlood flood-opacity="0" result="BackgroundImageFix"/>
<feColorMatrix in="SourceAlpha" type="matrix" values="0 0 0 0 0 0 0 0 0 0 0 0 0 0 0 0 0 0 127 0" result="hardAlpha"/>
<feOffset dy="4"/>
<feGaussianBlur stdDeviation="2"/>
<feColorMatrix type="matrix" values="0 0 0 0 0 0 0 0 0 0.482353 0 0 0 0 1 0 0 0 0.16 0"/>
<feBlend mode="normal" in2="BackgroundImageFix" result="effect1_dropShadow"/>
<feBlend mode="normal" in="SourceGraphic" in2="effect1_dropShadow" result="shape"/>
</filter>
<filter id="filter2_d" x="210.936" y="72.9517" width="12.5676" height="12.633" filterUnits="userSpaceOnUse" color-interpolation-filters="sRGB">
<feFlood flood-opacity="0" result="BackgroundImageFix"/>
<feColorMatrix in="SourceAlpha" type="matrix" values="0 0 0 0 0 0 0 0 0 0 0 0 0 0 0 0 0 0 127 0" result="hardAlpha"/>
<feOffset dy="4"/>
<feGaussianBlur stdDeviation="2"/>
<feColorMatrix type="matrix" values="0 0 0 0 0 0 0 0 0 0.482353 0 0 0 0 1 0 0 0 0.16 0"/>
<feBlend mode="normal" in2="BackgroundImageFix" result="effect1_dropShadow"/>
<feBlend mode="normal" in="SourceGraphic" in2="effect1_dropShadow" result="shape"/>
</filter>
<filter id="filter3_d" x="56.8611" y="175.66" width="12.5677" height="12.6331" filterUnits="userSpaceOnUse" color-interpolation-filters="sRGB">
<feFlood flood-opacity="0" result="BackgroundImageFix"/>
<feColorMatrix in="SourceAlpha" type="matrix" values="0 0 0 0 0 0 0 0 0 0 0 0 0 0 0 0 0 0 127 0" result="hardAlpha"/>
<feOffset dy="4"/>
<feGaussianBlur stdDeviation="2"/>
<feColorMatrix type="matrix" values="0 0 0 0 0 0 0 0 0 0.482353 0 0 0 0 1 0 0 0 0.16 0"/>
<feBlend mode="normal" in2="BackgroundImageFix" result="effect1_dropShadow"/>
<feBlend mode="normal" in="SourceGraphic" in2="effect1_dropShadow" result="shape"/>
</filter>
</defs>
</svg>
