<svg width="273" height="273" viewBox="0 0 273 273" fill="none" xmlns="http://www.w3.org/2000/svg">
<circle opacity="0.16" cx="136.495" cy="136.495" r="136.495" fill="#007BFF"/>
<path opacity="0.2" d="M137.477 227.848C185.421 227.848 224.288 188.756 224.288 140.533C224.288 92.3106 185.421 53.2185 137.477 53.2185C89.5323 53.2185 50.6655 92.3106 50.6655 140.533C50.6655 188.756 89.5323 227.848 137.477 227.848Z" fill="#007BFF"/>
<path d="M91.1892 96.5241V106.011V181.906C91.1892 185.42 93.9839 188.231 97.3027 188.231H219.572C223.066 188.231 225.686 185.42 225.686 181.906V106.011V96.8754C225.686 93.1861 222.716 90.1995 219.048 90.1995H97.3027L91.1892 96.5241Z" fill="#292941"/>
<g filter="url(#filter0_d)">
<path d="M56.6045 88.0913V99.3351V188.934C56.6045 192.974 59.9232 196.312 63.9407 196.312H208.393C212.411 196.312 215.729 192.974 215.729 188.934V99.3351V88.4427C215.729 84.0506 212.236 80.7126 208.044 80.7126H63.9407L56.6045 88.0913Z" fill="#575A79"/>
</g>
<path d="M168.394 95.8214H56.6045V88.0913C56.6045 84.0506 59.9232 80.7126 63.9407 80.7126H208.393C212.411 80.7126 215.729 84.0506 215.729 88.0913V95.8214H191.101H168.394Z" fill="#007BFF"/>
<path d="M66.0367 91.0786C67.3872 91.0786 68.4821 89.9774 68.4821 88.619C68.4821 87.2606 67.3872 86.1594 66.0367 86.1594C64.6861 86.1594 63.5913 87.2606 63.5913 88.619C63.5913 89.9774 64.6861 91.0786 66.0367 91.0786Z" fill="white"/>
<path d="M73.0233 91.0786C74.3738 91.0786 75.4687 89.9774 75.4687 88.619C75.4687 87.2606 74.3738 86.1594 73.0233 86.1594C71.6727 86.1594 70.5779 87.2606 70.5779 88.619C70.5779 89.9774 71.6727 91.0786 73.0233 91.0786Z" fill="white"/>
<path d="M80.1851 91.0786C81.5357 91.0786 82.6305 89.9774 82.6305 88.619C82.6305 87.2606 81.5357 86.1594 80.1851 86.1594C78.8346 86.1594 77.7397 87.2606 77.7397 88.619C77.7397 89.9774 78.8346 91.0786 80.1851 91.0786Z" fill="white"/>
<path d="M129.442 139.215L100.971 139.039C99.7479 139.039 98.8745 137.985 98.8745 136.931C98.8745 135.701 99.9225 134.823 100.971 134.823L129.442 134.999C130.665 134.999 131.538 136.053 131.538 137.107C131.538 138.161 130.665 139.215 129.442 139.215Z" fill="#9396B3"/>
<path d="M197.04 139.215L164.202 139.039C162.979 139.039 162.105 137.985 162.105 136.931C162.105 135.701 163.153 134.823 164.202 134.823L196.865 134.999C198.088 134.999 198.961 136.053 198.961 137.107C199.136 138.161 198.262 139.215 197.04 139.215Z" fill="#9396B3"/>
<path d="M175.206 180.5L142.368 180.325C141.145 180.325 140.271 179.271 140.271 178.217C140.271 176.987 141.32 176.108 142.368 176.108L175.206 176.284C176.428 176.284 177.302 177.338 177.302 178.392C177.302 179.622 176.254 180.5 175.206 180.5Z" fill="#DBDCEA"/>
<path d="M154.944 139.04L139.049 138.864C137.826 138.864 136.953 137.81 136.953 136.756C136.953 135.526 138.001 134.648 139.049 134.648L154.944 134.824C156.167 134.824 157.04 135.878 157.04 136.932C157.215 138.162 156.167 139.04 154.944 139.04Z" fill="#007BFF"/>
<path d="M89.6171 138.864H77.9142C76.6915 138.864 75.8181 137.81 75.8181 136.756C75.8181 135.526 76.6915 134.648 77.9142 134.648H89.6171C90.8398 134.648 91.7131 135.702 91.7131 136.756C91.7131 137.986 90.8398 138.864 89.6171 138.864Z" fill="#007BFF"/>
<path d="M135.031 152.918L117.914 152.742C116.691 152.742 115.818 151.688 115.818 150.634C115.818 149.404 116.866 148.526 117.914 148.526L135.031 148.701C136.254 148.701 137.127 149.755 137.127 150.81C137.302 151.864 136.254 152.918 135.031 152.918Z" fill="#DBDCEA"/>
<path d="M188.132 153.269L144.639 152.742C143.416 152.742 142.542 151.688 142.542 150.634C142.542 149.404 143.59 148.526 144.639 148.526L188.132 149.053C189.354 149.053 190.228 150.107 190.228 151.161C190.228 152.215 189.18 153.269 188.132 153.269Z" fill="#9396B3"/>
<path d="M106.56 152.742H77.9142C76.6915 152.742 75.8181 151.688 75.8181 150.634C75.8181 149.404 76.8661 148.526 77.9142 148.526H106.56C107.783 148.526 108.656 149.58 108.656 150.634C108.656 151.688 107.783 152.742 106.56 152.742Z" fill="#9396B3"/>
<path d="M157.564 166.621L117.914 166.446C116.691 166.446 115.818 165.392 115.818 164.337C115.818 163.108 116.866 162.229 117.914 162.229L157.739 162.405C158.961 162.405 159.835 163.459 159.835 164.513C159.835 165.743 158.787 166.621 157.564 166.621Z" fill="#007BFF"/>
<path d="M106.56 166.446H77.9142C76.6915 166.446 75.8181 165.392 75.8181 164.337C75.8181 163.108 76.8661 162.229 77.9142 162.229H106.56C107.783 162.229 108.656 163.283 108.656 164.337C108.656 165.392 107.783 166.446 106.56 166.446Z" fill="#9396B3"/>
<path d="M131.363 180.324L109.529 180.149C108.307 180.149 107.433 179.095 107.433 178.041C107.433 176.811 108.481 175.932 109.529 175.932L131.363 176.108C132.586 176.108 133.459 177.162 133.459 178.216C133.459 179.446 132.586 180.324 131.363 180.324Z" fill="#9396B3"/>
<path d="M95.5559 180.149H77.9142C76.6915 180.149 75.8181 179.095 75.8181 178.041C75.8181 176.811 76.8661 175.932 77.9142 175.932H95.5559C96.7786 175.932 97.6519 176.986 97.6519 178.041C97.8266 179.27 96.7786 180.149 95.5559 180.149Z" fill="#DBDCEA"/>
<path d="M158.263 117.958L77.9142 117.606C76.6915 117.606 75.8181 116.552 75.8181 115.498C75.8181 114.268 76.8661 113.39 77.9142 113.39L158.263 113.741C159.485 113.741 160.359 114.795 160.359 115.849C160.359 117.079 159.485 117.958 158.263 117.958Z" fill="#DBDCEA"/>
<path d="M37.604 130.134C38.1634 130.135 38.5835 130.275 39.0048 130.696C41.6853 136.153 41.408 136.712 43.9203 135.597C44.0595 135.457 44.4796 135.598 44.4808 135.878C45.1866 137.417 45.8901 138.397 45.3319 138.675C36.4005 142.857 38.5895 131.674 33.984 133.765C33.8447 133.904 33.7043 133.764 33.5639 133.624L32.1534 130.825C32.013 130.685 32.1522 130.546 32.2914 130.406C34.524 129.291 33.3993 127.891 32.4113 125.792C30.8605 122.853 31.9683 120.338 34.759 118.943C35.3171 118.664 35.8753 118.386 36.0169 118.805C37.4274 121.604 37.4261 121.324 36.3099 121.882C33.5192 123.276 39.6937 128.319 37.604 130.134Z" fill="#007BFF"/>
<path d="M228.194 122.213C228.038 122.337 228.163 122.493 228.194 122.213C228.754 122.279 229.158 122.468 229.531 122.938C231.582 128.714 231.24 129.242 233.885 128.417C234.04 128.293 234.445 128.482 234.413 128.763C234.941 130.386 235.532 131.449 234.941 131.663C225.512 134.814 229.002 123.869 224.148 125.428C223.992 125.552 223.867 125.396 223.743 125.239L222.656 122.273C222.531 122.116 222.687 121.993 222.842 121.869C225.208 121.011 224.244 119.479 223.498 117.262C222.286 114.139 223.688 111.749 226.644 110.677C227.235 110.462 227.827 110.248 227.92 110.685C229.007 113.651 229.038 113.371 227.856 113.8C224.868 115.152 230.497 120.639 228.194 122.213Z" fill="#007BFF"/>
<path d="M143.564 56.831C143.324 57.019 143.324 57.019 143.564 56.831C143.943 57.3098 144.322 57.7886 144.271 58.216C142.43 64.4982 141.734 64.8484 144.451 65.8236C144.666 65.8493 144.855 66.0886 144.804 66.516C144.145 68.3878 144.232 69.482 143.372 69.3792C132.856 66.1711 143.119 58.7285 138.063 57.2571C137.848 57.2314 137.874 57.0177 137.9 56.804L138.928 53.6758C138.953 53.4621 139.168 53.4878 139.383 53.5135C141.911 54.2492 142.115 52.5397 142.877 49.8131C143.931 46.4712 146.5 45.0443 149.862 46.0965C150.481 46.3873 151.126 46.4644 151.075 46.8918C150.047 50.02 150.476 50.0714 149.023 49.4642C145.205 48.5743 146.573 57.1908 143.564 56.831Z" fill="#007BFF"/>
<path d="M233.046 192.29C229.553 209.507 212.609 220.75 195.492 217.061C178.374 213.547 167.195 196.506 170.863 179.289C174.356 162.072 191.299 150.829 208.417 154.518C214.531 155.748 220.12 158.735 224.487 163.302C231.998 170.857 235.317 181.749 233.046 192.29Z" fill="#007BFF"/>
<path d="M217.476 186.299C217.302 184.191 216.603 182.258 215.205 180.501C215.031 180.326 215.031 179.974 215.031 179.799C215.555 177.866 215.729 175.758 214.681 174.001C214.681 173.825 214.507 173.825 214.332 173.825C212.061 173.65 209.616 174.528 207.869 175.934C207.695 176.109 207.52 176.109 207.345 176.109C204.027 175.407 200.533 175.407 197.214 176.109C196.865 176.285 196.516 176.109 196.166 175.934C194.42 174.528 192.149 173.825 189.878 174.001C189.704 174.001 189.704 174.001 189.529 174.177C189.18 174.704 189.005 175.231 188.83 175.934C188.481 177.339 188.656 178.92 189.005 180.326C189.005 180.501 189.005 180.677 188.83 180.853C187.957 181.907 187.258 183.312 186.909 184.718C186.21 187.529 186.21 190.515 187.258 193.151C187.957 195.259 189.529 196.84 191.45 197.718C193.197 198.421 195.118 198.948 197.04 198.948C200.184 199.124 203.328 199.124 206.297 199.124C211.363 198.948 215.904 197.367 216.952 192.448C217.476 189.988 217.651 188.232 217.476 186.299ZM212.236 194.556C211.013 196.489 208.393 197.191 206.123 197.367C202.979 197.543 199.834 197.543 196.865 197.191C195.817 197.016 194.944 196.84 194.07 196.313C192.149 195.435 190.926 193.678 190.752 191.57C190.577 190.34 190.926 188.934 191.45 187.88C192.324 186.299 193.896 185.421 195.468 185.596C196.69 185.596 197.913 185.772 198.961 185.948C201.057 186.299 202.979 186.123 205.075 185.948C206.123 185.772 207.171 185.596 208.044 185.596C209.965 185.421 211.712 186.475 212.411 188.407C213.808 190.34 213.459 192.624 212.236 194.556Z" fill="white"/>
<path d="M197.04 187.705C196.166 187.178 195.118 187.354 194.594 188.232C193.546 189.814 193.546 191.922 194.594 193.679C194.769 193.854 194.944 194.03 195.118 194.206C195.992 194.733 197.04 194.557 197.564 193.679C198.088 192.976 198.437 192.097 198.437 191.219C198.437 190.165 198.262 189.111 197.564 188.232C197.389 188.057 197.214 187.881 197.04 187.705Z" fill="white"/>
<path d="M208.917 187.705C208.044 187.178 206.996 187.354 206.472 188.232C205.424 189.814 205.424 192.097 206.472 193.679C206.646 193.854 206.821 194.03 206.996 194.206C207.869 194.733 208.917 194.381 209.441 193.679C209.965 192.976 210.315 191.922 210.315 191.043C210.315 189.989 209.965 189.111 209.441 188.408C209.441 188.057 209.092 187.881 208.917 187.705Z" fill="white"/>
<defs>
<filter id="filter0_d" x="34.6045" y="69.7126" width="203.125" height="159.6" filterUnits="userSpaceOnUse" color-interpolation-filters="sRGB">
<feFlood flood-opacity="0" result="BackgroundImageFix"/>
<feColorMatrix in="SourceAlpha" type="matrix" values="0 0 0 0 0 0 0 0 0 0 0 0 0 0 0 0 0 0 127 0" result="hardAlpha"/>
<feOffset dy="11"/>
<feGaussianBlur stdDeviation="11"/>
<feColorMatrix type="matrix" values="0 0 0 0 0.304118 0 0 0 0 0.563022 0 0 0 0 0.87946 0 0 0 0.18 0"/>
<feBlend mode="normal" in2="BackgroundImageFix" result="effect1_dropShadow"/>
<feBlend mode="normal" in="SourceGraphic" in2="effect1_dropShadow" result="shape"/>
</filter>
</defs>
</svg>
