<svg width="116" height="120" viewBox="0 0 116 120" fill="none" xmlns="http://www.w3.org/2000/svg">
<path opacity="0.2" d="M111.31 64.6154C111.31 77.1511 107.077 88.775 99.9842 98.1197C96.0946 103.134 91.4043 107.578 86.0276 110.997C77.3333 116.695 66.9231 120 55.712 120C24.9389 120 0 95.1567 0 64.6154C0 33.9602 24.9389 9.23083 55.5976 9.23083C66.8087 9.23083 77.2189 12.5357 85.9132 18.1197C91.2899 21.5385 95.9802 25.983 99.8698 30.9972C107.077 40.4559 111.31 52.0798 111.31 64.6154Z" fill="#007BFF"/>
<path d="M67.9447 120C69.539 120 70.9562 118.765 70.9562 117C70.9562 115.412 69.7162 114 67.9447 114C66.3503 114 64.9331 115.235 64.9331 117C64.9331 118.588 66.1732 120 67.9447 120Z" fill="#007BFF"/>
<path d="M8 113C9.58824 113 11 111.765 11 110C11 108.412 9.76471 107 8 107C6.41176 107 5 108.235 5 110C5.17647 111.588 6.41176 113 8 113Z" fill="#007BFF"/>
<path d="M102.044 28.2568C103.78 28.2568 105.13 26.9118 105.13 25.1825C105.13 23.4533 103.78 22.1083 102.044 22.1083C100.308 22.1083 98.9575 23.4533 98.9575 25.1825C98.9575 26.9118 100.308 28.2568 102.044 28.2568Z" fill="#007BFF"/>
<path d="M86.8283 116.923C102.939 116.923 116 103.913 116 87.8633C116 71.814 102.939 58.8035 86.8283 58.8035C70.7173 58.8035 57.6567 71.814 57.6567 87.8633C57.6567 103.913 70.7173 116.923 86.8283 116.923Z" fill="url(#paint0_linear)"/>
<path opacity="0.4" d="M74.0157 105.413C73.215 105.413 72.5286 104.729 72.5286 103.932V71.6809C72.5286 70.8832 73.215 70.1995 74.0157 70.1995C74.8165 70.1995 75.5029 70.8832 75.5029 71.6809V103.932C75.5029 104.843 74.8165 105.413 74.0157 105.413Z" fill="#4389F3"/>
<g filter="url(#filter0_d)">
<path d="M74.0158 99.3732C76.2903 99.3732 78.1341 97.5364 78.1341 95.2707C78.1341 93.0049 76.2903 91.1681 74.0158 91.1681C71.7413 91.1681 69.8975 93.0049 69.8975 95.2707C69.8975 97.5364 71.7413 99.3732 74.0158 99.3732Z" fill="#EAF4FF"/>
</g>
<path opacity="0.4" d="M86.714 105.413C85.9132 105.413 85.2268 104.729 85.2268 103.932V71.6809C85.2268 70.8832 85.9132 70.1995 86.714 70.1995C87.5148 70.1995 88.2012 70.8832 88.2012 71.6809V103.932C88.2012 104.843 87.5148 105.413 86.714 105.413Z" fill="#4389F3"/>
<g filter="url(#filter1_d)">
<path d="M86.8283 83.4189C89.1028 83.4189 90.9467 81.5821 90.9467 79.3163C90.9467 77.0505 89.1028 75.2137 86.8283 75.2137C84.5538 75.2137 82.71 77.0505 82.71 79.3163C82.71 81.5821 84.5538 83.4189 86.8283 83.4189Z" fill="#EAF4FF"/>
</g>
<path opacity="0.4" d="M99.5265 105.413C98.7257 105.413 98.0393 104.729 98.0393 103.932V71.6809C98.0393 70.8832 98.7257 70.1995 99.5265 70.1995C100.327 70.1995 101.014 70.8832 101.014 71.6809V103.932C101.014 104.843 100.327 105.413 99.5265 105.413Z" fill="#4389F3"/>
<g filter="url(#filter2_d)">
<path d="M99.5266 91.8519C101.801 91.8519 103.645 90.0151 103.645 87.7493C103.645 85.4835 101.801 83.6467 99.5266 83.6467C97.2521 83.6467 95.4082 85.4835 95.4082 87.7493C95.4082 90.0151 97.2521 91.8519 99.5266 91.8519Z" fill="#EAF4FF"/>
</g>
<path d="M93.1203 40.5698V50.1425C93.1203 51.624 92.5483 53.1054 91.6331 54.359L56.3984 91.9658V92.0798L54.5681 111.681C51.8225 114.644 41.1834 114.074 39.9251 111.681L38.0947 92.3077V91.9658L2.85998 54.359C1.94479 53.2194 1.3728 51.624 1.3728 50.1425V40.5698L47.2466 41.3675L93.1203 40.5698Z" fill="#5A5D81"/>
<path d="M80.4221 38.2906L41.7554 36.8091L1.3728 40.5698V49.9145C1.3728 55.0427 21.9645 59.1453 47.2466 59.1453C72.5286 59.1453 93.1203 55.0427 93.1203 49.9145V40.5698L80.4221 38.2906Z" fill="#696D90"/>
<path d="M93.1203 40.5698C93.1203 43.8747 86.9428 46.8376 77.2189 48.8889H77.1045C75.503 49.2308 73.6726 49.5727 71.8422 49.8006C71.3846 49.9146 71.0414 49.9146 70.5838 50.0285C65.2071 50.8262 59.144 51.2821 52.5089 51.51C50.7929 51.51 48.9625 51.624 47.2466 51.624C45.4162 51.624 43.5858 51.624 41.7554 51.51C32.8324 51.2821 24.5957 50.3704 17.9606 49.0029C7.89351 46.9516 1.3728 43.8747 1.3728 40.4559C1.3728 37.0371 7.89351 33.9601 17.9606 31.9089C19.4477 31.567 21.0493 31.3391 22.7653 31.1111C23.1085 31.1111 23.3373 30.9972 23.6805 30.9972C26.0829 30.6553 28.714 30.3134 31.4596 30.0855C31.8028 30.0855 32.0316 29.9715 32.3748 29.9715C34.6627 29.7436 37.1795 29.6297 39.6963 29.5157C40.0395 29.5157 40.3827 29.5157 40.6114 29.5157C40.9546 29.5157 41.2978 29.5157 41.7554 29.5157C43.4714 29.4017 45.4162 29.4017 47.2466 29.4017C47.7041 29.4017 48.2761 29.4017 48.7337 29.4017C49.0769 29.4017 49.3057 29.4017 49.6489 29.4017C50.9073 29.4017 52.0513 29.4017 53.1953 29.5157C56.3984 29.6297 59.6016 29.7436 62.5759 30.0855C62.6903 30.0855 62.6903 30.0855 62.8047 30.0855C64.1775 30.1995 65.4359 30.3134 66.6943 30.4274C68.8678 30.6553 70.927 30.9972 72.9862 31.3391C74.359 31.567 75.7317 31.7949 77.1045 32.1368C86.9428 34.1881 93.1203 37.265 93.1203 40.5698Z" fill="#6E7191"/>
<path d="M47.2466 31.0763C59.3728 31.0763 70.6982 32.2307 79.2781 34.3086C88.7732 36.6173 91.2899 39.2723 91.2899 40.4267C91.2899 41.581 88.7732 44.2361 79.2781 46.5448C70.6982 48.6227 59.3728 49.777 47.2466 49.777C35.1203 49.777 23.7949 48.6227 15.215 46.5448C5.71994 44.2361 3.20318 41.581 3.20318 40.4267C3.20318 39.2723 5.71994 36.6173 15.215 34.3086C23.7949 32.2307 35.1203 31.0763 47.2466 31.0763ZM47.2466 29.2294C21.9645 29.2294 1.3728 34.1931 1.3728 40.4267C1.3728 46.5448 21.9645 51.624 47.2466 51.624C72.5286 51.624 93.1203 46.6602 93.1203 40.4267C93.1203 34.1931 72.5286 29.2294 47.2466 29.2294Z" fill="#8D91B4"/>
<path d="M56.3985 92.1937L54.5681 111.681C51.8225 114.644 41.1835 114.074 39.9251 111.681L38.0947 92.3077C40.7259 93.1054 43.8146 93.4473 46.9034 93.4473C50.3354 93.5612 53.5385 92.9914 56.3985 92.1937Z" fill="#5A5D81"/>
<path d="M39.4674 47.1794L38.209 48.7749L37.637 49.4586C35.1202 49.3447 32.7178 49.1167 30.3155 48.8888C29.0571 48.7749 27.6843 48.6609 26.5403 48.433L23.2228 45.1281L22.8796 44.7863L20.9348 42.735L22.8796 40.2279L35.6922 37.2649C35.8066 37.2649 35.8066 37.3789 35.921 37.3789C36.2642 37.6068 36.493 37.8347 36.6074 38.1766L39.6962 44.4444C40.1537 45.3561 40.0393 46.3817 39.4674 47.1794Z" fill="#0059DE"/>
<path d="M35.8066 37.7207L29.0571 46.2678L28.9427 46.3817L23.2228 45.2421L20.0197 44.6723L19.9053 44.5584C19.9053 44.4444 19.9053 44.4444 19.9053 44.3304C19.9053 43.9886 20.0197 43.6467 20.2485 43.4188C20.2485 43.4188 20.2485 43.4188 20.2485 43.3048L25.3964 36.6951C25.9684 35.8974 26.998 35.5555 27.9132 35.7834L34.5483 37.1509C34.8915 37.1509 35.1203 37.2649 35.3491 37.4928C35.6923 37.6068 35.8066 37.6068 35.8066 37.7207Z" fill="#007BFF"/>
<path d="M30.3155 49.0028C29.0571 48.8888 27.6844 48.7749 26.5404 48.547C24.71 48.319 22.994 48.0911 21.2781 47.7492C21.1637 47.6353 21.1637 47.4074 21.0493 47.2934L20.8205 46.7236L20.7061 46.3817C20.7061 46.2678 20.5917 46.1538 20.4773 46.0398C20.3629 45.8119 20.2485 45.584 20.1341 45.3561C20.1341 45.2421 20.0197 45.2421 20.0197 45.1282C20.0197 44.9002 19.9053 44.7863 19.9053 44.5584C19.9053 44.4444 19.9053 44.4444 19.9053 44.3304L22.7652 44.9002L28.3708 46.0398L28.9427 46.1538L30.3155 49.0028Z" fill="#3496FF"/>
<path d="M61.7748 40.7977L59.9444 39.3162L53.5381 34.3019C53.1949 34.074 52.9661 33.7321 52.8517 33.2763L52.7373 33.1623L64.0627 22.2222L64.4059 21.8803L66.6939 19.6011L69.5539 21.8803L72.757 36.5811C72.757 36.6951 72.6426 36.6951 72.6426 36.809C72.4138 37.1509 72.0706 37.3789 71.613 37.6068L64.8635 41.1395C63.9483 41.7093 62.69 41.5954 61.7748 40.7977Z" fill="#0059DE"/>
<path d="M72.7575 36.8091L62.9192 28.9458L62.6904 28.8318L64.0632 22.3361L64.7496 18.6894L64.864 18.5754C64.9784 18.5754 64.9784 18.5754 65.0928 18.5754C65.436 18.5754 65.8936 18.8034 66.2368 19.0313C66.2368 19.0313 66.3512 19.0313 66.3512 19.1452L73.9015 25.1851C74.8167 25.8689 75.1599 27.0085 74.9311 28.1481L73.3295 35.7834C73.2151 36.1253 73.1007 36.4672 72.9863 36.6951C72.8719 36.5811 72.8719 36.6951 72.7575 36.8091Z" fill="#3496FF"/>
<path d="M52.8521 33.3903L52.7377 33.2763C52.6233 32.9344 52.6233 32.5925 52.7377 32.2507C52.9665 31.225 53.1952 30.3133 53.424 29.2877L53.7672 27.5783C53.7672 27.4643 53.7672 27.3504 53.8816 27.2364C53.8816 27.1224 53.8816 27.1224 53.8816 27.1224C53.8816 27.0085 53.8816 26.8945 53.996 26.7806C54.1104 26.4387 54.1104 26.0968 54.2248 25.7549C54.3392 25.1851 54.4536 24.7293 54.568 24.3874C54.7968 23.5897 55.2544 22.9059 55.9408 22.564C56.0552 22.4501 56.1696 22.4501 56.1696 22.3361H56.284C57.7712 21.6524 59.9448 20.7407 61.8895 19.829L62.5759 19.6011L62.9191 19.3732C63.0335 19.2592 63.2623 19.2592 63.3767 19.1452C63.7199 19.0313 63.9487 18.9173 64.1775 18.8034C64.2919 18.8034 64.4063 18.6894 64.5207 18.6894C64.7495 18.5754 64.9783 18.5754 65.0927 18.5754C65.2071 18.5754 65.2071 18.5754 65.3215 18.5754V18.6894L64.6351 21.9942L63.2623 28.376L63.1479 29.0598L57.3136 31.5669H56.856L52.8521 33.3903Z" fill="#007BFF"/>
<path d="M37.6373 21.9943L35.2349 21.6524L26.9982 20.2849C26.5406 20.1709 26.1974 20.0569 25.9686 19.7151C25.8542 19.7151 25.8542 19.7151 25.8542 19.6011L30.5446 3.98857V3.64669L31.4598 0.455811L35.1205 1.02561L45.4164 12.5356C45.4164 12.6495 45.4164 12.7635 45.4164 12.8775C45.302 13.3333 45.1876 13.6752 44.9588 14.131L40.6116 20.7407C40.0396 21.7664 38.8957 22.2222 37.6373 21.9943Z" fill="#0059DE"/>
<path d="M45.5308 12.8775L32.7182 10.7122H32.4894L30.3159 4.10256L29.1719 0.45584V0.34188C29.2863 0.34188 29.2863 0.22792 29.4007 0.22792C29.8583 0 30.2015 0 30.6591 0H30.7735L40.6117 1.59544C41.7557 1.82336 42.6709 2.62108 43.0141 3.76068L45.4164 11.51C45.5308 11.8519 45.5308 12.1937 45.5308 12.5356C45.5308 12.6496 45.5308 12.7635 45.5308 12.8775Z" fill="#007BFF"/>
<path d="M25.8542 19.8291C25.7398 19.8291 25.7398 19.8291 25.7398 19.7151C25.511 19.4872 25.2822 19.1453 25.1678 18.8034C24.8246 17.7778 24.5958 16.7521 24.2526 15.8405L23.6806 14.1311C23.6806 14.0171 23.5662 13.9031 23.5662 13.7892C23.5662 13.6752 23.5662 13.6752 23.5662 13.6752C23.5662 13.5613 23.5662 13.4473 23.4518 13.3333C23.3374 12.9915 23.223 12.6496 23.1086 12.1937C22.9942 11.6239 22.7654 11.1681 22.651 10.8262C22.4222 10.0285 22.5366 9.11681 22.8798 8.43305C22.8798 8.31909 22.9942 8.20513 22.9942 8.09117V7.97721C24.0238 6.72365 25.511 4.67236 26.7694 2.96296L27.2269 2.39316L27.4557 2.05128C27.5701 1.93732 27.6845 1.82336 27.7989 1.59544C28.0277 1.36752 28.1421 1.02564 28.3709 0.797721C28.3709 0.683761 28.4853 0.683761 28.5997 0.5698C28.7141 0.45584 28.9429 0.22792 29.0573 0.11396C29.1717 0.11396 29.1717 0 29.2861 0V0.11396L30.5445 3.64672L32.4893 10.0285L32.7181 10.7122L28.8285 15.8405L28.5997 16.1823L25.8542 19.8291Z" fill="#3496FF"/>
<defs>
<filter id="filter0_d" x="65.8975" y="91.1681" width="16.2367" height="16.2051" filterUnits="userSpaceOnUse" color-interpolation-filters="sRGB">
<feFlood flood-opacity="0" result="BackgroundImageFix"/>
<feColorMatrix in="SourceAlpha" type="matrix" values="0 0 0 0 0 0 0 0 0 0 0 0 0 0 0 0 0 0 127 0" result="hardAlpha"/>
<feOffset dy="4"/>
<feGaussianBlur stdDeviation="2"/>
<feColorMatrix type="matrix" values="0 0 0 0 0 0 0 0 0 0.482353 0 0 0 0 1 0 0 0 0.16 0"/>
<feBlend mode="normal" in2="BackgroundImageFix" result="effect1_dropShadow"/>
<feBlend mode="normal" in="SourceGraphic" in2="effect1_dropShadow" result="shape"/>
</filter>
<filter id="filter1_d" x="78.71" y="75.2137" width="16.2367" height="16.2051" filterUnits="userSpaceOnUse" color-interpolation-filters="sRGB">
<feFlood flood-opacity="0" result="BackgroundImageFix"/>
<feColorMatrix in="SourceAlpha" type="matrix" values="0 0 0 0 0 0 0 0 0 0 0 0 0 0 0 0 0 0 127 0" result="hardAlpha"/>
<feOffset dy="4"/>
<feGaussianBlur stdDeviation="2"/>
<feColorMatrix type="matrix" values="0 0 0 0 0 0 0 0 0 0.482353 0 0 0 0 1 0 0 0 0.16 0"/>
<feBlend mode="normal" in2="BackgroundImageFix" result="effect1_dropShadow"/>
<feBlend mode="normal" in="SourceGraphic" in2="effect1_dropShadow" result="shape"/>
</filter>
<filter id="filter2_d" x="91.4082" y="83.6467" width="16.2367" height="16.2051" filterUnits="userSpaceOnUse" color-interpolation-filters="sRGB">
<feFlood flood-opacity="0" result="BackgroundImageFix"/>
<feColorMatrix in="SourceAlpha" type="matrix" values="0 0 0 0 0 0 0 0 0 0 0 0 0 0 0 0 0 0 127 0" result="hardAlpha"/>
<feOffset dy="4"/>
<feGaussianBlur stdDeviation="2"/>
<feColorMatrix type="matrix" values="0 0 0 0 0 0 0 0 0 0.482353 0 0 0 0 1 0 0 0 0.16 0"/>
<feBlend mode="normal" in2="BackgroundImageFix" result="effect1_dropShadow"/>
<feBlend mode="normal" in="SourceGraphic" in2="effect1_dropShadow" result="shape"/>
</filter>
<linearGradient id="paint0_linear" x1="86.7477" y1="58.9741" x2="86.7477" y2="116.452" gradientUnits="userSpaceOnUse">
<stop stop-color="#2D81FF"/>
<stop offset="1" stop-color="#204097"/>
</linearGradient>
</defs>
</svg>
