<svg width="135" height="135" viewBox="0 0 135 135" fill="none" xmlns="http://www.w3.org/2000/svg">
<path opacity="0.2" d="M67.405 123.629C98.4564 123.629 123.629 98.4564 123.629 67.405C123.629 36.3535 98.4564 11.1814 67.405 11.1814C36.3535 11.1814 11.1814 36.3535 11.1814 67.405C11.1814 98.4564 36.3535 123.629 67.405 123.629Z" fill="#007BFF"/>
<path d="M67.4048 94.2158C82.212 94.2158 94.2157 82.2122 94.2157 67.405C94.2157 52.5977 82.212 40.5941 67.4048 40.5941C52.5976 40.5941 40.594 52.5977 40.594 67.405C40.594 82.2122 52.5976 94.2158 67.4048 94.2158Z" fill="#0E0E23"/>
<path d="M67.4049 133.81C104.079 133.81 133.81 104.079 133.81 67.4049C133.81 30.7305 104.079 1 67.4049 1C30.7305 1 1 30.7305 1 67.4049C1 104.079 30.7305 133.81 67.4049 133.81Z" stroke="#007BFF" stroke-width="2" stroke-miterlimit="10" stroke-linecap="round" stroke-linejoin="round" stroke-dasharray="1 6"/>
<path d="M30.2826 22.5794C31.768 22.0966 32.5808 20.5011 32.098 19.0157C31.6152 17.5302 30.0197 16.7175 28.5343 17.2003C27.0489 17.6831 26.2361 19.2786 26.7189 20.764C27.2017 22.2494 28.7972 23.0622 30.2826 22.5794Z" fill="#EAEEF9"/>
<path d="M17.177 120.008C18.1766 120.008 18.987 119.198 18.987 118.198C18.987 117.199 18.1766 116.388 17.177 116.388C16.1773 116.388 15.3669 117.199 15.3669 118.198C15.3669 119.198 16.1773 120.008 17.177 120.008Z" fill="url(#paint0_linear)"/>
<path d="M124.647 20.4582V36.0696C124.647 37.4271 123.855 38.7846 122.724 39.4634L110.733 46.364C110.054 46.8165 109.149 47.0428 108.357 47.0428C107.565 47.0428 106.773 46.8165 105.981 46.364L93.99 39.4634C92.7456 38.7846 92.0669 37.5402 92.0669 36.0696V20.4582C92.0669 19.7795 92.2931 19.1007 92.6325 18.5351C92.9719 17.9694 93.4244 17.4038 94.1032 17.0644L106.434 9.9375C107.565 9.25875 109.036 9.25875 110.28 9.82438C110.28 9.82438 110.393 9.82438 110.393 9.9375L122.837 17.0644C122.837 17.0644 122.95 17.0644 122.95 17.1776C122.95 17.1776 122.95 17.1776 123.063 17.1776C123.629 17.5169 123.968 17.9694 124.308 18.5351C124.421 19.1007 124.647 19.7795 124.647 20.4582Z" fill="#F3F6FA"/>
<path d="M124.647 20.4576V36.0689C124.647 37.4264 123.855 38.784 122.723 39.4627L110.732 46.3634C110.053 46.8159 109.148 47.0422 108.356 47.0422V27.5845L124.081 18.5344C124.42 19.1001 124.647 19.7788 124.647 20.4576Z" fill="#292941"/>
<path d="M108.356 27.5845V47.0422C107.564 47.0422 106.773 46.8159 105.981 46.3634L93.9893 39.4627C92.7449 38.784 92.0662 37.5396 92.0662 36.0689V20.4576C92.0662 19.7788 92.2924 19.1001 92.6318 18.5344L108.356 27.5845Z" fill="#6E7191"/>
<path d="M124.081 18.5344L108.356 27.5845L92.5188 18.4213C92.8582 17.8557 93.3107 17.29 93.9894 16.9507L106.32 9.82373C107.451 9.14498 108.922 9.14498 110.166 9.71061L122.837 17.0638C122.837 17.0638 122.837 17.0638 122.95 17.0638C123.402 17.5163 123.855 17.9688 124.081 18.5344Z" fill="#A0A3BD"/>
<path d="M124.646 100.664V116.275C124.646 117.633 123.854 118.99 122.723 119.669L110.732 126.57C110.053 127.022 109.148 127.248 108.356 127.248V107.791L124.081 98.7406C124.42 99.3062 124.646 99.8719 124.646 100.664Z" fill="#292941"/>
<path d="M108.356 107.791V127.248C107.564 127.248 106.772 127.022 105.98 126.57L93.9891 119.669C92.7447 118.99 92.0659 117.746 92.0659 116.275V100.664C92.0659 99.985 92.2922 99.3062 92.6315 98.7406L108.356 107.791Z" fill="#6E7191"/>
<path d="M124.081 98.7423L108.356 107.792L92.5186 98.6292C92.8579 98.0636 93.3104 97.4979 93.9892 97.1586L106.32 90.0316C107.451 89.3529 108.922 89.3529 110.166 89.9185L122.836 97.2717C122.836 97.2717 122.836 97.2717 122.949 97.2717C123.402 97.8373 123.854 98.2898 124.081 98.7423Z" fill="#A0A3BD"/>
<path d="M42.744 100.664V116.275C42.744 117.633 41.9521 118.99 40.8208 119.669L28.8295 126.57C28.1507 127.022 27.2457 127.248 26.4539 127.248V107.791L42.1784 98.7406C42.5177 99.3062 42.744 99.8719 42.744 100.664Z" fill="#292941"/>
<path d="M26.4537 107.791V127.248C25.6618 127.248 24.8699 127.022 24.0781 126.57L12.0867 119.669C10.8423 118.99 10.1636 117.746 10.1636 116.275V100.664C10.1636 99.985 10.2993 99.0758 10.6387 98.5102L26.4537 107.791Z" fill="#6E7191"/>
<path d="M42.1783 98.6276L26.4538 107.678L10.6162 98.5144C10.9556 97.9488 11.4081 97.3832 12.0868 97.0438L24.4176 89.9169C25.5488 89.2381 27.0195 89.2381 28.2639 89.8037L40.934 97.1569C40.934 97.1569 40.934 97.1569 41.0471 97.1569C41.4996 97.7226 41.9521 98.1751 42.1783 98.6276Z" fill="#A0A3BD"/>
<path d="M42.7435 18.7605V34.3719C42.7435 35.7294 41.9516 37.0869 40.8204 37.7657L28.829 44.6664C28.1503 45.1189 27.2453 45.3451 26.4534 45.3451V25.8875L42.1779 16.8374C42.5172 17.2899 42.7435 17.9687 42.7435 18.7605Z" fill="#292941"/>
<path d="M26.4535 25.7744V45.2321C25.6616 45.2321 24.8697 45.0058 24.0778 44.5533L12.0865 37.6527C10.8421 36.9739 10.1633 35.7295 10.1633 34.2589V18.6475C10.1633 17.9688 10.3896 17.29 10.729 16.7244L26.4535 25.7744Z" fill="#6E7191"/>
<path d="M42.1778 16.7244L26.4533 25.7744L10.6157 16.6112C10.9551 16.0456 11.4076 15.48 12.0864 15.1406L24.4171 8.01367C25.5483 7.33492 27.019 7.33492 28.2634 7.90055L40.9335 15.2537C40.9335 15.2537 40.9335 15.2537 41.0466 15.2537C41.4991 15.8194 41.9516 16.2719 42.1778 16.7244Z" fill="#A0A3BD"/>
<path d="M83.6952 59.7123V75.3236C83.6952 76.6811 82.9033 78.0386 81.772 78.7174L69.7807 85.6181C69.1019 86.0706 68.1969 86.2968 67.405 86.2968V66.723L83.12 57.6764C83.4594 58.1289 83.6952 58.9204 83.6952 59.7123Z" fill="#0059DE"/>
<path d="M67.4049 66.7229V86.2969C66.613 86.2969 65.8211 86.0707 65.0292 85.6182L53.0379 78.6043C51.7935 77.9256 51.1147 76.6812 51.1147 75.2106V59.5992C51.1147 58.9204 51.2377 58.1382 51.5771 57.5726L67.4049 66.7229Z" fill="#3496FF"/>
<path d="M83.1295 57.676L67.405 66.7261L51.5674 57.5629C51.9068 56.9973 52.3593 56.4316 53.038 56.0923L65.3687 48.9653C66.5 48.2866 67.9706 48.2866 69.215 48.8522L81.8851 56.2054C82.8128 56.9978 82.9033 57.2235 83.1295 57.676Z" fill="#007BFF"/>
<path d="M79.1285 25.5483H55.5983C54.8064 25.5483 54.1277 24.8696 54.1277 24.0777C54.1277 23.2858 54.8064 22.6071 55.5983 22.6071H79.1285C79.9204 22.6071 80.5991 23.2858 80.5991 24.0777C80.5991 24.8696 79.9204 25.5483 79.1285 25.5483Z" fill="url(#paint1_linear)"/>
<path d="M79.1285 110.845H55.5983C54.8064 110.845 54.1277 110.167 54.1277 109.375C54.1277 108.583 54.8064 107.904 55.5983 107.904H79.1285C79.9204 107.904 80.5991 108.583 80.5991 109.375C80.5991 110.167 79.9204 110.845 79.1285 110.845Z" fill="url(#paint2_linear)"/>
<path d="M109.899 79.9619C109.107 79.9619 108.428 79.2832 108.428 78.4913V54.9611C108.428 54.1692 109.107 53.4905 109.899 53.4905C110.69 53.4905 111.369 54.1692 111.369 54.9611V78.4913C111.369 79.2832 110.69 79.9619 109.899 79.9619Z" fill="url(#paint3_linear)"/>
<path d="M24.7148 79.9619C23.9229 79.9619 23.2441 79.2832 23.2441 78.4913V54.9611C23.2441 54.1692 23.9229 53.4905 24.7148 53.4905C25.5067 53.4905 26.1854 54.1692 26.1854 54.9611V78.4913C26.1854 79.2832 25.5067 79.9619 24.7148 79.9619Z" fill="url(#paint4_linear)"/>
<path d="M49.2633 52.1329C48.924 52.1329 48.5846 52.0198 48.2452 51.6804L41.797 45.3454C41.2314 44.7797 41.2314 43.8747 41.797 43.3091C42.3627 42.7435 43.2677 42.7435 43.8333 43.3091L50.2815 49.7573C50.8471 50.3229 50.8471 51.2279 50.2815 51.7936C49.9421 52.0198 49.6027 52.1329 49.2633 52.1329Z" fill="#6E7191"/>
<path d="M90.7804 93.6501C90.4411 93.6501 90.1017 93.537 89.7623 93.1976L83.3141 86.7494C82.7485 86.1838 82.7485 85.2788 83.3141 84.7132C83.8797 84.1475 84.7848 84.1475 85.3504 84.7132L91.7986 91.1613C92.3642 91.727 92.3642 92.632 91.7986 93.1976C91.4592 93.537 91.1198 93.6501 90.7804 93.6501Z" fill="#6E7191"/>
<path d="M42.8152 93.6501C42.4758 93.6501 42.1364 93.537 41.797 93.1976C41.2314 92.632 41.2314 91.727 41.797 91.1613L48.2452 84.7132C48.8108 84.1475 49.7158 84.1475 50.2815 84.7132C50.8471 85.2788 50.8471 86.1838 50.2815 86.7494L43.8333 93.1976C43.4939 93.537 43.1545 93.6501 42.8152 93.6501Z" fill="#6E7191"/>
<path d="M84.3322 52.1329C83.9929 52.1329 83.6535 52.0198 83.3141 51.6804C82.7485 51.1148 82.7485 50.2098 83.3141 49.6441L89.7623 43.196C90.3279 42.6303 91.2329 42.6303 91.7986 43.196C92.3642 43.7616 92.3642 44.6666 91.7986 45.2322L85.3504 51.6804C85.011 52.0198 84.6716 52.1329 84.3322 52.1329Z" fill="#6E7191"/>
<defs>
<linearGradient id="paint0_linear" x1="15.389" y1="118.178" x2="18.9008" y2="118.178" gradientUnits="userSpaceOnUse">
<stop offset="0.00289017" stop-color="#FFD44F"/>
<stop offset="1" stop-color="#FFA607"/>
</linearGradient>
<linearGradient id="paint1_linear" x1="67.3268" y1="22.6157" x2="67.3268" y2="25.5245" gradientUnits="userSpaceOnUse">
<stop stop-color="#2D81FF"/>
<stop offset="1" stop-color="#204097"/>
</linearGradient>
<linearGradient id="paint2_linear" x1="67.3268" y1="107.913" x2="67.3268" y2="110.821" gradientUnits="userSpaceOnUse">
<stop stop-color="#2D81FF"/>
<stop offset="1" stop-color="#204097"/>
</linearGradient>
<linearGradient id="paint3_linear" x1="109.895" y1="53.5682" x2="109.895" y2="79.7473" gradientUnits="userSpaceOnUse">
<stop stop-color="#2D81FF"/>
<stop offset="1" stop-color="#204097"/>
</linearGradient>
<linearGradient id="paint4_linear" x1="24.7107" y1="53.5682" x2="24.7107" y2="79.7473" gradientUnits="userSpaceOnUse">
<stop stop-color="#2D81FF"/>
<stop offset="1" stop-color="#204097"/>
</linearGradient>
</defs>
</svg>
