<svg width="140" height="121" viewBox="0 0 140 121" fill="none" xmlns="http://www.w3.org/2000/svg">
<path opacity="0.2" d="M68.7328 116.712C100.818 116.712 126.828 90.5854 126.828 58.3562C126.828 26.1269 100.818 0 68.7328 0C36.6475 0 10.6372 26.1269 10.6372 58.3562C10.6372 90.5854 36.6475 116.712 68.7328 116.712Z" fill="#007BFF"/>
<g filter="url(#filter0_d)">
<path d="M12.7024 24.1727C14.2373 23.6715 15.0771 22.0155 14.5782 20.4737C14.0794 18.932 12.4307 18.0884 10.8958 18.5895C9.36095 19.0906 8.52112 20.7467 9.01999 22.2884C9.51886 23.8302 11.1675 24.6738 12.7024 24.1727Z" fill="#EAF4FF"/>
</g>
<g filter="url(#filter1_d)">
<path d="M19.0814 14.5951C20.1251 14.2543 20.6962 13.1282 20.357 12.0798C20.0177 11.0314 18.8966 10.4578 17.8529 10.7985C16.8092 11.1393 16.2381 12.2654 16.5774 13.3138C16.9166 14.3622 18.0377 14.9358 19.0814 14.5951Z" fill="#EAF4FF"/>
</g>
<g filter="url(#filter2_d)">
<path d="M134.029 43.7286C135.84 42.0663 135.967 39.244 134.312 37.4249C132.657 35.6059 129.847 35.4788 128.036 37.1412C126.225 38.8035 126.099 41.6258 127.754 43.4449C129.409 45.2639 132.218 45.391 134.029 43.7286Z" fill="#EAF4FF"/>
</g>
<g filter="url(#filter3_d)">
<path d="M134.444 23.8122C135.207 23.1123 135.26 21.924 134.563 21.158C133.866 20.3921 132.683 20.3386 131.921 21.0386C131.158 21.7385 131.105 22.9268 131.802 23.6927C132.499 24.4587 133.682 24.5122 134.444 23.8122Z" fill="#EAF4FF"/>
</g>
<path d="M7.48106 81.8394C9.10777 81.8394 10.4265 80.5148 10.4265 78.8807C10.4265 77.2467 9.10777 75.9221 7.48106 75.9221C5.85435 75.9221 4.53564 77.2467 4.53564 78.8807C4.53564 80.5148 5.85435 81.8394 7.48106 81.8394Z" fill="url(#paint0_linear)"/>
<path d="M113.736 8.72708C115.425 8.72708 116.794 7.35173 116.794 5.65516C116.794 3.95859 115.425 2.58325 113.736 2.58325C112.047 2.58325 110.678 3.95859 110.678 5.65516C110.678 7.35173 112.047 8.72708 113.736 8.72708Z" fill="url(#paint1_linear)"/>
<path d="M2.57166 47.5538C3.99194 47.5538 5.14331 46.3973 5.14331 44.9706C5.14331 43.544 3.99194 42.3875 2.57166 42.3875C1.15137 42.3875 0 43.544 0 44.9706C0 46.3973 1.15137 47.5538 2.57166 47.5538Z" fill="url(#paint2_linear)"/>
<path d="M119.815 91.2328H17.6506V26.3013C17.6506 24.1878 19.2871 22.5439 21.3912 22.5439H116.074C118.178 22.5439 119.815 24.1878 119.815 26.3013V91.2328Z" fill="#A0A3BD"/>
<path d="M94.3323 94.6378H20.8069V26.3013H116.191V94.6378H104.97" fill="#292941"/>
<path d="M125.66 91.2329V94.1683C125.66 96.8689 123.322 97.5734 120.516 97.5734H16.9494C14.144 97.5734 11.8062 96.9863 11.8062 94.1683V91.2329H58.6801C59.0307 92.2897 60.1997 93.1116 61.4855 93.1116H75.9802C77.266 93.1116 78.318 92.2897 78.7856 91.2329H125.66Z" fill="#A0A3BD"/>
<path d="M125.66 91.2329C125.66 93.9335 123.322 94.5206 120.516 94.5206H16.9494C14.144 94.5206 11.8062 93.9335 11.8062 91.2329H58.6801C59.0307 92.2897 60.1997 93.1116 61.4855 93.1116H75.9802C77.266 93.1116 78.318 92.2897 78.7856 91.2329H125.66Z" fill="#6E7191"/>
<path d="M24.4306 30.8806C25.0762 30.8806 25.5996 30.3549 25.5996 29.7064C25.5996 29.0579 25.0762 28.5322 24.4306 28.5322C23.7851 28.5322 23.2617 29.0579 23.2617 29.7064C23.2617 30.3549 23.7851 30.8806 24.4306 30.8806Z" fill="#007BFF"/>
<path opacity="0.6" d="M28.2685 30.8806C28.9141 30.8806 29.4375 30.3549 29.4375 29.7064C29.4375 29.0579 28.9141 28.5322 28.2685 28.5322C27.623 28.5322 27.0996 29.0579 27.0996 29.7064C27.0996 30.3549 27.623 30.8806 28.2685 30.8806Z" fill="#6E7191"/>
<path d="M32.1064 30.8806C32.752 30.8806 33.2754 30.3549 33.2754 29.7064C33.2754 29.0579 32.752 28.5322 32.1064 28.5322C31.4608 28.5322 30.9375 29.0579 30.9375 29.7064C30.9375 30.3549 31.4608 30.8806 32.1064 30.8806Z" fill="#A0A3BD"/>
<path d="M108.71 48.963H78.084C77.4996 48.963 77.032 48.4933 77.032 47.9062V36.9864C77.032 36.3994 77.4996 35.9297 78.084 35.9297H108.71C109.294 35.9297 109.762 36.3994 109.762 36.9864V47.9062C109.879 48.4933 109.411 48.963 108.71 48.963Z" fill="#444463"/>
<path d="M109.879 64.6967C109.879 65.2838 109.411 65.7535 108.827 65.7535H78.084C77.4996 65.7535 77.032 65.2838 77.032 64.6967V53.777C77.032 53.1899 77.4996 52.7202 78.084 52.7202H108.71C109.294 52.7202 109.762 53.1899 109.762 53.777V64.6967H109.879Z" fill="#444463"/>
<path d="M103.684 40.7435H83.1106C82.7599 40.7435 82.5261 40.5087 82.5261 40.1564C82.5261 39.8042 82.7599 39.5693 83.1106 39.5693H103.684C104.034 39.5693 104.268 39.8042 104.268 40.1564C104.151 40.5087 103.917 40.7435 103.684 40.7435Z" fill="#6E7191"/>
<path d="M96.4363 45.088H83.1106C82.7599 45.088 82.5261 44.8532 82.5261 44.5009C82.5261 44.1487 82.7599 43.9138 83.1106 43.9138H96.5532C96.9039 43.9138 97.1377 44.1487 97.1377 44.5009C97.0208 44.7357 96.787 45.088 96.4363 45.088Z" fill="#6E7191"/>
<path d="M103.684 57.534H83.1106C82.7599 57.534 82.5261 57.2992 82.5261 56.9469C82.5261 56.5947 82.7599 56.3599 83.1106 56.3599H103.684C104.034 56.3599 104.268 56.5947 104.268 56.9469C104.151 57.2992 103.917 57.534 103.684 57.534Z" fill="#6E7191"/>
<path d="M96.4363 61.8785H83.1106C82.7599 61.8785 82.5261 61.6437 82.5261 61.2914C82.5261 60.9392 82.7599 60.7043 83.1106 60.7043H96.5532C96.9039 60.7043 97.1377 60.9392 97.1377 61.2914C97.0208 61.6437 96.787 61.8785 96.4363 61.8785Z" fill="url(#paint3_linear)"/>
<path d="M109.879 81.6047C109.879 82.1918 109.411 82.6614 108.827 82.6614H78.084C77.4996 82.6614 77.032 82.1918 77.032 81.6047V70.6849C77.032 70.0978 77.4996 69.6282 78.084 69.6282H108.71C109.294 69.6282 109.762 70.0978 109.762 70.6849V81.6047H109.879Z" fill="#444463"/>
<path d="M103.684 74.5597H83.1106C82.7599 74.5597 82.5261 74.3248 82.5261 73.9726C82.5261 73.6203 82.7599 73.3855 83.1106 73.3855H103.684C104.034 73.3855 104.268 73.6203 104.268 73.9726C104.151 74.3248 103.917 74.5597 103.684 74.5597Z" fill="url(#paint4_linear)"/>
<path d="M96.4363 78.9041H83.1106C82.7599 78.9041 82.5261 78.6693 82.5261 78.3171C82.5261 77.9648 82.7599 77.73 83.1106 77.73H96.5532C96.9039 77.73 97.1377 77.9648 97.1377 78.3171C97.0208 78.5519 96.787 78.9041 96.4363 78.9041Z" fill="url(#paint5_linear)"/>
<path d="M68.4991 68.3365H27.236C26.184 68.3365 25.3657 67.5146 25.3657 66.4578V37.9255C25.3657 36.8688 26.184 36.0469 27.236 36.0469H68.616C69.668 36.0469 70.4863 36.8688 70.4863 37.9255V66.4578C70.3694 67.5146 69.5511 68.3365 68.4991 68.3365Z" fill="#444463"/>
<path d="M69.668 79.6084H26.184C25.7164 79.6084 25.3657 79.2562 25.3657 78.7865C25.3657 78.3168 25.7164 77.9646 26.184 77.9646H69.668C70.1356 77.9646 70.4863 78.3168 70.4863 78.7865C70.3694 79.2562 70.0187 79.6084 69.668 79.6084Z" fill="#6E7191"/>
<path d="M69.668 74.677H26.184C25.7164 74.677 25.3657 74.3248 25.3657 73.8551C25.3657 73.3855 25.7164 73.0332 26.184 73.0332H69.668C70.1356 73.0332 70.4863 73.3855 70.4863 73.8551C70.3694 74.3248 70.0187 74.677 69.668 74.677Z" fill="#6E7191"/>
<path d="M40.7955 84.4226H26.184C25.7164 84.4226 25.3657 84.0704 25.3657 83.6007C25.3657 83.1311 25.7164 82.7788 26.184 82.7788H40.7955C41.2631 82.7788 41.6138 83.1311 41.6138 83.6007C41.4969 84.0704 41.1462 84.4226 40.7955 84.4226Z" fill="#6E7191"/>
<path d="M83.4635 102.873C95.4355 102.873 105.141 93.1815 105.141 81.2267C105.141 69.2719 95.4355 59.5806 83.4635 59.5806C71.4916 59.5806 61.7864 69.2719 61.7864 81.2267C61.7864 93.1815 71.4916 102.873 83.4635 102.873Z" fill="#292941"/>
<path d="M103.767 77.7209H63.6184V83.666H103.767V77.7209Z" fill="#6E7191"/>
<path d="M103.767 65.9832H63.6184V71.9282H103.767V65.9832Z" fill="#6E7191"/>
<path d="M115.979 107.599L111.4 112.172L98.1187 99.0621L102.698 94.489L115.979 107.599Z" fill="url(#paint6_linear)"/>
<path d="M65.7555 62.1723C55.8328 72.0807 55.8328 88.0867 65.7555 97.9951C75.6781 107.904 91.707 107.904 101.63 97.9951C111.552 88.0867 111.552 72.0807 101.63 62.1723C91.707 52.2639 75.6781 52.2639 65.7555 62.1723ZM97.5079 93.8793C89.8751 101.501 77.51 101.501 69.7245 93.8793C62.0917 86.2574 62.0917 73.91 69.7245 66.1357C77.3573 58.5138 89.7224 58.5138 97.5079 66.1357C105.141 73.91 105.141 86.2574 97.5079 93.8793Z" fill="#007BFF"/>
<path d="M123.154 119.336C121.17 121.318 117.811 121.318 115.674 119.336L102.24 106.074C101.477 105.312 101.477 103.94 102.24 103.026L106.667 98.6048C107.431 97.8427 108.805 97.8427 109.568 98.6048L123.154 111.867C125.291 114.001 125.291 117.355 123.154 119.336Z" fill="url(#paint7_linear)"/>
<defs>
<filter id="filter0_d" x="4.87598" y="18.4449" width="13.846" height="13.8723" filterUnits="userSpaceOnUse" color-interpolation-filters="sRGB">
<feFlood flood-opacity="0" result="BackgroundImageFix"/>
<feColorMatrix in="SourceAlpha" type="matrix" values="0 0 0 0 0 0 0 0 0 0 0 0 0 0 0 0 0 0 127 0" result="hardAlpha"/>
<feOffset dy="4"/>
<feGaussianBlur stdDeviation="2"/>
<feColorMatrix type="matrix" values="0 0 0 0 0 0 0 0 0 0.482353 0 0 0 0 1 0 0 0 0.16 0"/>
<feBlend mode="normal" in2="BackgroundImageFix" result="effect1_dropShadow"/>
<feBlend mode="normal" in="SourceGraphic" in2="effect1_dropShadow" result="shape"/>
</filter>
<filter id="filter1_d" x="12.4795" y="10.7002" width="11.9753" height="11.9931" filterUnits="userSpaceOnUse" color-interpolation-filters="sRGB">
<feFlood flood-opacity="0" result="BackgroundImageFix"/>
<feColorMatrix in="SourceAlpha" type="matrix" values="0 0 0 0 0 0 0 0 0 0 0 0 0 0 0 0 0 0 127 0" result="hardAlpha"/>
<feOffset dy="4"/>
<feGaussianBlur stdDeviation="2"/>
<feColorMatrix type="matrix" values="0 0 0 0 0 0 0 0 0 0.482353 0 0 0 0 1 0 0 0 0.16 0"/>
<feBlend mode="normal" in2="BackgroundImageFix" result="effect1_dropShadow"/>
<feBlend mode="normal" in="SourceGraphic" in2="effect1_dropShadow" result="shape"/>
</filter>
<filter id="filter2_d" x="122.591" y="35.973" width="16.884" height="16.9238" filterUnits="userSpaceOnUse" color-interpolation-filters="sRGB">
<feFlood flood-opacity="0" result="BackgroundImageFix"/>
<feColorMatrix in="SourceAlpha" type="matrix" values="0 0 0 0 0 0 0 0 0 0 0 0 0 0 0 0 0 0 127 0" result="hardAlpha"/>
<feOffset dy="4"/>
<feGaussianBlur stdDeviation="2"/>
<feColorMatrix type="matrix" values="0 0 0 0 0 0 0 0 0 0.482353 0 0 0 0 1 0 0 0 0.16 0"/>
<feBlend mode="normal" in2="BackgroundImageFix" result="effect1_dropShadow"/>
<feBlend mode="normal" in="SourceGraphic" in2="effect1_dropShadow" result="shape"/>
</filter>
<filter id="filter3_d" x="127.312" y="20.5466" width="11.7406" height="11.7574" filterUnits="userSpaceOnUse" color-interpolation-filters="sRGB">
<feFlood flood-opacity="0" result="BackgroundImageFix"/>
<feColorMatrix in="SourceAlpha" type="matrix" values="0 0 0 0 0 0 0 0 0 0 0 0 0 0 0 0 0 0 127 0" result="hardAlpha"/>
<feOffset dy="4"/>
<feGaussianBlur stdDeviation="2"/>
<feColorMatrix type="matrix" values="0 0 0 0 0 0 0 0 0 0.482353 0 0 0 0 1 0 0 0 0.16 0"/>
<feBlend mode="normal" in2="BackgroundImageFix" result="effect1_dropShadow"/>
<feBlend mode="normal" in="SourceGraphic" in2="effect1_dropShadow" result="shape"/>
</filter>
<linearGradient id="paint0_linear" x1="7.47292" y1="75.9395" x2="7.47292" y2="81.7914" gradientUnits="userSpaceOnUse">
<stop stop-color="#2D81FF"/>
<stop offset="1" stop-color="#204097"/>
</linearGradient>
<linearGradient id="paint1_linear" x1="113.728" y1="2.60129" x2="113.728" y2="8.67725" gradientUnits="userSpaceOnUse">
<stop stop-color="#2D81FF"/>
<stop offset="1" stop-color="#204097"/>
</linearGradient>
<linearGradient id="paint2_linear" x1="2.56455" y1="42.4026" x2="2.56455" y2="47.5119" gradientUnits="userSpaceOnUse">
<stop stop-color="#2D81FF"/>
<stop offset="1" stop-color="#204097"/>
</linearGradient>
<linearGradient id="paint3_linear" x1="82.5019" y1="61.2831" x2="97.0583" y2="61.2831" gradientUnits="userSpaceOnUse">
<stop stop-color="#CED7E2"/>
<stop offset="1" stop-color="#E6ECF5"/>
</linearGradient>
<linearGradient id="paint4_linear" x1="82.5019" y1="73.986" x2="104.197" y2="73.986" gradientUnits="userSpaceOnUse">
<stop stop-color="#CED7E2"/>
<stop offset="1" stop-color="#E6ECF5"/>
</linearGradient>
<linearGradient id="paint5_linear" x1="82.5019" y1="78.2716" x2="97.0583" y2="78.2716" gradientUnits="userSpaceOnUse">
<stop stop-color="#CED7E2"/>
<stop offset="1" stop-color="#E6ECF5"/>
</linearGradient>
<linearGradient id="paint6_linear" x1="107.024" y1="94.5409" x2="107.024" y2="112.028" gradientUnits="userSpaceOnUse">
<stop stop-color="#2D81FF"/>
<stop offset="1" stop-color="#204097"/>
</linearGradient>
<linearGradient id="paint7_linear" x1="113.181" y1="98.1001" x2="113.181" y2="120.638" gradientUnits="userSpaceOnUse">
<stop stop-color="#2D81FF"/>
<stop offset="1" stop-color="#204097"/>
</linearGradient>
</defs>
</svg>
